<svg id="forgot" xmlns="http://www.w3.org/2000/svg" width="16.73" height="19.737" viewBox="0 0 16.73 19.737">
  <path id="Path_4722" data-name="Path 4722" d="M165.9,21.826a.263.263,0,0,0,.526,0v-.263H165.9Zm0,0" transform="translate(-158.622 -20.617)" fill="#fff"/>
  <path id="Path_4723" data-name="Path 4723" d="M166.424.263a.263.263,0,0,0-.526,0V.526h.526Zm0,0" transform="translate(-158.622)" fill="#fff"/>
  <path id="Path_4724" data-name="Path 4724" d="M134.081.263a.263.263,0,0,0-.526,0V.526h.526Zm0,0" transform="translate(-127.697)" fill="#fff"/>
  <path id="Path_4725" data-name="Path 4725" d="M134.081,21.826v-.263h-.526v.263a.263.263,0,0,0,.526,0Zm0,0" transform="translate(-127.697 -20.617)" fill="#fff"/>
  <path id="Path_4726" data-name="Path 4726" d="M145.555,12h.892v.419h-.892Zm0,0" transform="translate(-139.171 -11.474)" fill="#fff"/>
  <path id="Path_4727" data-name="Path 4727" d="M56.481,12a2.577,2.577,0,0,0-2.574,2.574v3.567h.42V14.574a2.157,2.157,0,0,1,2.155-2.155H57.4V12Zm0,0" transform="translate(-51.542 -11.474)" fill="#fff"/>
  <path id="Path_4728" data-name="Path 4728" d="M69.174,282.688a.014.014,0,1,0,.014.014A.014.014,0,0,0,69.174,282.688Zm0,0" transform="translate(-66.127 -270.289)" fill="#fff"/>
  <path id="Path_4729" data-name="Path 4729" d="M77.1,33.563a1.63,1.63,0,0,0-1.628,1.628v3.567h7.04V35.191a1.63,1.63,0,0,0-1.628-1.628Zm0,0" transform="translate(-72.163 -32.09)" fill="#fff"/>
  <path id="Path_4730" data-name="Path 4730" d="M178.818,12H177.9v.419h.919a2.157,2.157,0,0,1,2.155,2.155v3.567h.42V14.574A2.577,2.577,0,0,0,178.818,12Zm0,0" transform="translate(-170.096 -11.474)" fill="#fff"/>
  <path id="Path_4731" data-name="Path 4731" d="M126.667,282.688a.014.014,0,0,0-.014.014.014.014,0,0,0,.014.014.014.014,0,1,0,0-.028Zm0,0" transform="translate(-121.098 -270.289)" fill="#fff"/>
  <path id="Path_4732" data-name="Path 4732" d="M259.063,324.807a2.807,2.807,0,1,0-2.807,2.807A2.807,2.807,0,0,0,259.063,324.807Zm-2.807,2.1a.409.409,0,1,1,.409-.409A.409.409,0,0,1,256.256,326.909Zm.572-2.076a.637.637,0,0,0-.309.553v.381a.263.263,0,0,1-.526,0v-.381a1.164,1.164,0,0,1,.571-1.008.614.614,0,1,0-.922-.532.263.263,0,0,1-.526,0,1.145,1.145,0,0,1,.362-.834,1.14,1.14,0,1,1,1.35,1.82Zm0,0" transform="translate(-242.333 -307.877)" fill="#fff"/>
  <path id="Path_4733" data-name="Path 4733" d="M314.9,421.914a.117.117,0,1,0,.117.117A.117.117,0,0,0,314.9,421.914Zm0,0" transform="translate(-300.975 -403.409)" fill="#fff"/>
  <path id="Path_4734" data-name="Path 4734" d="M241.655,282.688a.014.014,0,1,0,.014.014A.014.014,0,0,0,241.655,282.688Zm0,0" transform="translate(-231.043 -270.289)" fill="#fff"/>
  <path id="Path_4735" data-name="Path 4735" d="M13.046,164.02H.614a.615.615,0,0,0-.614.614v9.122a.615.615,0,0,0,.614.614H10.648a3.329,3.329,0,0,1,3.012-3.936v-5.8a.615.615,0,0,0-.614-.614Zm-10,5.731a.512.512,0,1,1,.512-.512A.512.512,0,0,1,3.048,169.751Zm2.522,0a.512.512,0,1,1,.512-.512A.512.512,0,0,1,5.569,169.751Zm2.522,0a.512.512,0,1,1,.512-.512A.512.512,0,0,1,8.091,169.751Zm2.522,0a.512.512,0,1,1,.512-.512A.512.512,0,0,1,10.612,169.751Zm0,0" transform="translate(0 -156.826)" fill="#fff"/>
  <path id="Path_4736" data-name="Path 4736" d="M184.163,282.688a.014.014,0,1,0,.014.014A.014.014,0,0,0,184.163,282.688Zm0,0" transform="translate(-176.072 -270.289)" fill="#fff"/>
</svg>
