<svg xmlns="http://www.w3.org/2000/svg" width="17" height="11.9" viewBox="0 0 17 11.9">
  <g id="Group_3108" data-name="Group 3108" transform="translate(-0.063 -15.643)">
    <path id="Path_4710" data-name="Path 4710" d="M10.263,23.4a2.254,2.254,0,0,1,1.7,2.178v.85a1.134,1.134,0,0,1-1.116,1.116H1.179A1.071,1.071,0,0,1,.4,27.211a1.072,1.072,0,0,1-.332-.784v-.85A2.183,2.183,0,0,1,.541,24.2a2.186,2.186,0,0,1,1.222-.8l1.647-.425a4.375,4.375,0,0,0,2.47.85,4.294,4.294,0,0,0,2.736-.85Zm-4.25-7.756a3.576,3.576,0,0,0-1.859.5A3.82,3.82,0,0,0,2.8,17.5a3.677,3.677,0,0,0,0,3.719,3.82,3.82,0,0,0,1.355,1.355,3.677,3.677,0,0,0,3.719,0,3.82,3.82,0,0,0,1.355-1.355,3.678,3.678,0,0,0,0-3.719,3.82,3.82,0,0,0-1.355-1.355A3.576,3.576,0,0,0,6.013,15.643ZM16.744,20.77a.317.317,0,0,1,.319.319V22.1a.317.317,0,0,1-.319.319H14.911v1.833a.317.317,0,0,1-.319.319H13.583a.317.317,0,0,1-.319-.319V22.416H11.432a.317.317,0,0,1-.319-.319V21.088a.317.317,0,0,1,.319-.319h1.833V18.937a.317.317,0,0,1,.319-.319h1.009a.317.317,0,0,1,.319.319V20.77Z" transform="translate(0 0)" fill="#fff"/>
  </g>
</svg>
