<svg id="menu" xmlns="http://www.w3.org/2000/svg" width="22.293" height="15.675" viewBox="0 0 22.293 15.675">
  <g id="Group_238" data-name="Group 238" transform="translate(0 6.947)">
    <g id="Group_237" data-name="Group 237" transform="translate(0 0)">
      <path id="Path_1441" data-name="Path 1441" d="M21.422,236H.871a.89.89,0,0,0,0,1.78H21.422a.89.89,0,0,0,0-1.78Z" transform="translate(0 -236)" fill="#8a8c8e"/>
    </g>
  </g>
  <g id="Group_240" data-name="Group 240" transform="translate(0 0)">
    <g id="Group_239" data-name="Group 239">
      <path id="Path_1442" data-name="Path 1442" d="M21.422,76H.871a.89.89,0,0,0,0,1.78H21.422a.89.89,0,0,0,0-1.78Z" transform="translate(0 -76)" fill="#8a8c8e"/>
    </g>
  </g>
  <g id="Group_242" data-name="Group 242" transform="translate(0 13.895)">
    <g id="Group_241" data-name="Group 241" transform="translate(0 0)">
      <path id="Path_1443" data-name="Path 1443" d="M21.422,396H.871a.89.89,0,0,0,0,1.78H21.422a.89.89,0,0,0,0-1.78Z" transform="translate(0 -396)" fill="#8a8c8e"/>
    </g>
  </g>
</svg>
