<svg xmlns="http://www.w3.org/2000/svg" width="16.352" height="13.626" viewBox="0 0 16.352 13.626">
  <g id="sign-in" transform="translate(0 -36.551)">
    <g id="Group_3107" data-name="Group 3107" transform="translate(0 36.551)">
      <path id="Path_4708" data-name="Path 4708" d="M261.274,37.451a2.953,2.953,0,0,0-2.166-.9H255.7a.321.321,0,0,0-.218.069.351.351,0,0,0-.106.208,1.759,1.759,0,0,0-.032.25,2.6,2.6,0,0,0,.005.282q.01.17.01.213a.275.275,0,0,1,.021.144c-.007.039.018.071.074.1s.085.044.085.059.041.025.122.032l.123.011h3.322a1.709,1.709,0,0,1,1.7,1.7v7.495a1.709,1.709,0,0,1-1.7,1.7H255.7a.322.322,0,0,0-.218.069.353.353,0,0,0-.107.207,1.775,1.775,0,0,0-.032.25,2.633,2.633,0,0,0,.005.282c.007.114.011.184.011.213a.345.345,0,0,0,.341.341h3.406a3.072,3.072,0,0,0,3.066-3.066V39.617A2.954,2.954,0,0,0,261.274,37.451Z" transform="translate(-245.821 -36.551)" fill="#fff"/>
      <path id="Path_4709" data-name="Path 4709" d="M12.6,52.15a.655.655,0,0,0-.2-.479L6.611,45.879a.681.681,0,0,0-1.16.479v3.066H.681a.655.655,0,0,0-.479.2.655.655,0,0,0-.2.479v4.088a.655.655,0,0,0,.2.479.656.656,0,0,0,.479.2H5.451v3.066a.677.677,0,0,0,1.16.479L12.4,52.629A.656.656,0,0,0,12.6,52.15Z" transform="translate(0 -45.337)" fill="#fff"/>
    </g>
  </g>
</svg>
