<svg xmlns="http://www.w3.org/2000/svg" width="65" height="65" viewBox="0 0 65 65"><path d="M60.412,34.028a48.686,48.686,0,0,0-9.44-.766c-1.554,0-3.021.046-4.38.134V3.491A3.5,3.5,0,0,0,43.1,0H3.491C1.468,0,0,1.682,0,4V56.685a3.437,3.437,0,0,0,3.491,2.983H36.943v1.46c0,2.152,3.453,2.87,4.588,3.106a48.685,48.685,0,0,0,9.44.766,48.686,48.686,0,0,0,9.44-.766C61.547,64,65,63.28,65,61.128V37.134C65,34.981,61.547,34.264,60.412,34.028Zm2.684,15.1c-.02.041-.416.741-3.39,1.312a48.537,48.537,0,0,1-8.734.662,48.536,48.536,0,0,1-8.734-.662c-3.047-.585-3.388-1.306-3.39-1.306V45.42a12.415,12.415,0,0,0,2.684.818,48.686,48.686,0,0,0,9.44.766,48.686,48.686,0,0,0,9.44-.766A12.417,12.417,0,0,0,63.1,45.42Zm-38.594.2a.952.952,0,0,0-.952.952v2.412H9.077a.846.846,0,0,1-.825-.571V42.656h15.3V45.83a.952.952,0,1,0,1.9,0V42.656H36.943V52.686H25.454V50.273A.952.952,0,0,0,24.5,49.321ZM40.752,34.2c-1.46.358-3.809,1.157-3.809,2.932v3.618H25.454V30.723H39.927a.826.826,0,0,1,.825.825Zm-17.2,6.551H8.252V31.8c0-.645.332-1.079.825-1.079H23.55ZM63.1,43.126c-.02.041-.416.741-3.39,1.312a48.536,48.536,0,0,1-8.734.662,48.535,48.535,0,0,1-8.734-.662c-3.047-.585-3.388-1.306-3.39-1.306v-3.71a12.414,12.414,0,0,0,2.684.818,48.675,48.675,0,0,0,9.44.766,48.686,48.686,0,0,0,9.44-.766,12.416,12.416,0,0,0,2.684-.818Zm-3.39-7.3c2.872.551,3.34,1.223,3.387,1.305-.047.082-.515.754-3.387,1.305a48.536,48.536,0,0,1-8.734.662,48.536,48.536,0,0,1-8.734-.662c-2.872-.551-3.34-1.223-3.387-1.305.047-.082.515-.754,3.387-1.305a48.536,48.536,0,0,1,8.734-.662A48.536,48.536,0,0,1,59.706,35.828ZM3.491,57.764A1.651,1.651,0,0,1,1.9,56.685V25.645H33.262a.952.952,0,0,0,0-1.9H1.9V4C1.9,2.727,2.527,1.9,3.491,1.9H43.1a1.589,1.589,0,0,1,1.587,1.587V23.74H37.705a.952.952,0,0,0,0,1.9h6.982v7.91q-1.08.113-2.031.267V31.548a2.733,2.733,0,0,0-2.729-2.729H9.077A2.8,2.8,0,0,0,6.348,31.8V52.114A2.681,2.681,0,0,0,9.077,54.59H36.943v3.174Zm56.215,4.67a48.536,48.536,0,0,1-8.734.662,48.536,48.536,0,0,1-8.734-.662c-3.047-.585-3.388-1.305-3.39-1.305v-3.71a12.414,12.414,0,0,0,2.684.818,48.686,48.686,0,0,0,9.44.766c1.815,0,3.533-.063,5.109-.187a.952.952,0,1,0-.149-1.9c-1.526.12-3.194.181-4.959.181a48.535,48.535,0,0,1-8.734-.662c-3.047-.585-3.388-1.305-3.39-1.305v-3.71a12.415,12.415,0,0,0,2.684.818,48.686,48.686,0,0,0,9.44.766,48.686,48.686,0,0,0,9.44-.766,12.417,12.417,0,0,0,2.684-.818v3.7c-.02.041-.37.66-2.89,1.209a.952.952,0,1,0,.405,1.861,11.971,11.971,0,0,0,2.485-.775v3.7C63.076,61.163,62.68,61.862,59.706,62.433Z" fill="#fff"/><path d="M86.436,52.759V42.729A2.733,2.733,0,0,0,83.706,40H62.7a.952.952,0,1,0,0,1.9H83.706a.826.826,0,0,1,.825.825V52.759a.826.826,0,0,1-.825.825H52.729a.826.826,0,0,1-.825-.825V42.729a.826.826,0,0,1,.825-.825h5.522a.952.952,0,1,0,0-1.9H52.729A2.733,2.733,0,0,0,50,42.729V52.759a2.733,2.733,0,0,0,2.729,2.729H83.706A2.733,2.733,0,0,0,86.436,52.759Z" transform="translate(-43.652 -34.922)" fill="#fff"/><path d="M103.808,368H96.952a.952.952,0,0,0,0,1.9h6.855a.952.952,0,0,0,0-1.9Z" transform="translate(-83.813 -321.281)" fill="#fff"/><path d="M101.952,256.7h1.841v1.841a.952.952,0,0,0,1.9,0V256.7h1.841a.952.952,0,0,0,0-1.9H105.7v-1.841a.952.952,0,1,0-1.9,0v1.841h-1.841a.952.952,0,0,0,0,1.9Z" transform="translate(-88.178 -220.008)" fill="#fff"/><path d="M238.519,258.723a.952.952,0,0,0-1.347,0l-1.3,1.3-1.3-1.3a.952.952,0,1,0-1.347,1.347l1.3,1.3-1.3,1.3a.952.952,0,0,0,1.347,1.347l1.3-1.3,1.3,1.3a.952.952,0,0,0,1.347-1.347l-1.3-1.3,1.3-1.3A.952.952,0,0,0,238.519,258.723Z" transform="translate(-203.37 -225.634)" fill="#fff"/><path d="M232.6,357.368a.95.95,0,0,0,.673-.279l4.316-4.316a.952.952,0,1,0-1.347-1.347l-4.316,4.316a.952.952,0,0,0,.673,1.625Z" transform="translate(-202.238 -306.568)" fill="#fff"/><g transform="translate(29.637 44.006)"><ellipse cx="0.5" cy="1.5" rx="0.5" ry="1.5" transform="translate(0.363 -0.383)" fill="#fff"/><ellipse cx="1.5" cy="1" rx="1.5" ry="1" transform="translate(3.363 5.617)" fill="#fff"/></g><path d="M263,77.125a2.224,2.224,0,0,0,2.222-2.222V71.222A2.224,2.224,0,0,0,263,69h-1.777A2.224,2.224,0,0,0,259,71.222V74.9a2.224,2.224,0,0,0,2.222,2.222ZM260.9,74.9V71.222a.318.318,0,0,1,.317-.317H263a.318.318,0,0,1,.317.317V74.9a.318.318,0,0,1-.317.317h-1.777A.318.318,0,0,1,260.9,74.9Z" transform="translate(-226.119 -60.24)" fill="#fff"/></svg>