<?xml version="1.0" encoding="utf-8"?>
<!-- Generator: Adobe Illustrator 22.0.0, SVG Export Plug-In . SVG Version: 6.00 Build 0)  -->
<svg version="1.1" id="Layer_1" xmlns="http://www.w3.org/2000/svg" xmlns:xlink="http://www.w3.org/1999/xlink" x="0px" y="0px"
	 viewBox="0 0 15.9 15" style="enable-background:new 0 0 15.9 15;" xml:space="preserve">
<style type="text/css">
	.st0{fill:#8A8C8E;}
</style>
<g id="Group_1365" transform="translate(0 0)">
	<g id="eye" transform="translate(0 4.969)">
		<g id="Group_1364" transform="translate(0 0)">
			<g id="Group_1361">
				<g id="Group_1360">
					<path id="Path_3702" class="st0" d="M15.8,3.9C15.7,3.7,12.2,0,8,0S0.3,3.7,0.1,3.9C0,4.1,0,4.3,0.1,4.5C0.3,4.7,3.7,8.4,8,8.4
						s7.7-3.7,7.8-3.9C16,4.3,16,4.1,15.8,3.9z M8,7.5C6.2,7.5,4.7,6,4.7,4.2S6.2,0.9,8,0.9s3.3,1.5,3.3,3.3l0,0
						C11.2,6,9.8,7.5,8,7.5z"/>
				</g>
			</g>
			<g id="Group_1363" transform="translate(5.628 1.866)">
				<g id="Group_1362" transform="translate(0 0)">
					<path id="Path_3703" class="st0" d="M2.8,1.4c0-0.5,0.2-0.9,0.6-1.1C3.1,0.1,2.7,0,2.3,0C1,0,0,1,0,2.3c0,1.3,1,2.3,2.3,2.3
						c1.1,0,2.1-0.8,2.3-1.9C3.9,3,3.1,2.6,2.9,1.8C2.8,1.7,2.8,1.5,2.8,1.4z"/>
				</g>
			</g>
		</g>
	</g>
	<path id="Path_4720" class="st0" d="M1.7,0.6L2.3,0l10.6,14.4L12.4,15L1.7,0.6z"/>
</g>
</svg>
