<svg xmlns="http://www.w3.org/2000/svg" width="15.925" height="8.4" viewBox="0 0 15.925 8.4">
  <g id="eye" transform="translate(-0.025)">
    <g id="Group_1364">
      <g id="Group_1361">
        <g id="Group_1360">
          <path id="Path_3702" d="M15.8,3.9C15.7,3.7,12.2,0,8,0S.3,3.7.1,3.9a.637.637,0,0,0,0,.6C.3,4.7,3.7,8.4,8,8.4s7.7-3.7,7.8-3.9A.375.375,0,0,0,15.8,3.9ZM8,7.5A3.329,3.329,0,0,1,4.7,4.2a3.3,3.3,0,0,1,6.6,0h0A3.4,3.4,0,0,1,8,7.5Z" fill="#888"/>
        </g>
      </g>
      <g id="Group_1363" transform="translate(5.628 1.866)">
        <g id="Group_1362">
          <path id="Path_3703" d="M2.8,1.4A1.149,1.149,0,0,1,3.4.3,2.016,2.016,0,0,0,2.3,0,2.263,2.263,0,0,0,0,2.3,2.263,2.263,0,0,0,2.3,4.6,2.354,2.354,0,0,0,4.6,2.7a1.248,1.248,0,0,1-1.7-.9A.6.6,0,0,1,2.8,1.4Z" fill="#888"/>
        </g>
      </g>
    </g>
  </g>
</svg>
