<svg xmlns="http://www.w3.org/2000/svg" xmlns:xlink="http://www.w3.org/1999/xlink" width="83" height="83" viewBox="0 0 83 83"><defs><linearGradient id="a" x1="-0.81" y1="0.411" x2="1.499" y2="0.568" gradientUnits="objectBoundingBox"><stop offset="0" stop-color="#e4a900"/><stop offset="1" stop-color="#fefab1"/></linearGradient><linearGradient id="b" x1="0.505" y1="-0.08" x2="0.505" y2="6.389" xlink:href="#a"/><linearGradient id="c" x1="0.499" y1="-0.674" x2="0.499" y2="9.277" xlink:href="#a"/><linearGradient id="d" x1="0.501" y1="-31.748" x2="0.501" y2="18.172" xlink:href="#a"/><linearGradient id="e" x1="0.501" y1="-4.752" x2="0.501" y2="13.736" xlink:href="#a"/><linearGradient id="f" x1="0.501" y1="-6.12" x2="0.501" y2="13.982" xlink:href="#a"/><linearGradient id="g" x1="0.501" y1="-20.011" x2="0.501" y2="16.967" xlink:href="#a"/><linearGradient id="h" x1="0.501" y1="-3.568" x2="0.501" y2="13.451" xlink:href="#a"/><linearGradient id="i" x1="0.501" y1="-7.807" x2="0.501" y2="14.38" xlink:href="#a"/><linearGradient id="j" x1="0.501" y1="-15.567" x2="0.501" y2="15.961" xlink:href="#a"/><linearGradient id="k" x1="0.501" y1="-26.312" x2="0.501" y2="18.393" xlink:href="#a"/><linearGradient id="l" x1="0.501" y1="-12.388" x2="0.501" y2="15.346" xlink:href="#a"/><linearGradient id="m" x1="0.501" y1="-9.883" x2="0.501" y2="14.87" xlink:href="#a"/><linearGradient id="n" x1="0.501" y1="-2.362" x2="0.501" y2="12.536" xlink:href="#a"/><linearGradient id="o" x1="0.501" y1="-35.763" x2="0.501" y2="5.838" xlink:href="#a"/><linearGradient id="p" x1="0.501" y1="-37.108" x2="0.501" y2="3.922" xlink:href="#a"/><linearGradient id="q" x1="0.501" y1="-34.015" x2="0.501" y2="15.905" xlink:href="#a"/><linearGradient id="r" x1="0.501" y1="-33.967" x2="0.501" y2="12.833" xlink:href="#a"/><linearGradient id="s" x1="0.501" y1="-34.968" x2="0.501" y2="10.414" xlink:href="#a"/><linearGradient id="t" x1="0.501" y1="-34.87" x2="0.501" y2="7.919" xlink:href="#a"/><linearGradient id="u" x1="0.503" y1="-10.486" x2="0.503" y2="10.03" xlink:href="#a"/><linearGradient id="v" x1="0.503" y1="-23.975" x2="0.503" y2="11.682" xlink:href="#a"/><linearGradient id="w" x1="0.497" y1="-40.998" x2="0.497" y2="13.46" xlink:href="#a"/><linearGradient id="x" x1="0.503" y1="-30.484" x2="0.503" y2="12.304" xlink:href="#a"/><linearGradient id="y" x1="0.497" y1="-12.707" x2="0.497" y2="10.333" xlink:href="#a"/><linearGradient id="z" x1="0.497" y1="-19.12" x2="0.497" y2="11.134" xlink:href="#a"/><linearGradient id="aa" x1="0.497" y1="-15.552" x2="0.497" y2="10.722" xlink:href="#a"/><linearGradient id="ab" x1="0.497" y1="-57.9" x2="0.497" y2="15.154" xlink:href="#a"/><linearGradient id="ac" x1="0.503" y1="-95.957" x2="0.503" y2="19.243" xlink:href="#a"/><linearGradient id="ad" x1="0.503" y1="-8.545" x2="0.503" y2="9.608" xlink:href="#a"/><linearGradient id="ae" x1="0.507" y1="-1.22" x2="0.507" y2="3.298" xlink:href="#a"/><linearGradient id="af" x1="0.505" y1="-261.39" x2="0.505" y2="38.131" xlink:href="#a"/><linearGradient id="ag" x1="0.506" y1="-64.556" x2="0.506" y2="23.539" xlink:href="#a"/><linearGradient id="ah" x1="0.537" y1="-766.663" x2="0.537" y2="231.779" xlink:href="#a"/><linearGradient id="ai" x1="0.499" y1="-29.449" x2="0.499" y2="12.737" xlink:href="#a"/><linearGradient id="aj" x1="0.503" y1="-22.849" x2="0.503" y2="11.578" xlink:href="#a"/><linearGradient id="ak" x1="0.534" y1="-320.408" x2="0.534" y2="107.471" xlink:href="#a"/><linearGradient id="al" x1="0.496" y1="-17.735" x2="0.496" y2="10.522" xlink:href="#a"/><linearGradient id="am" x1="0.499" y1="-11.249" x2="0.499" y2="8.989" xlink:href="#a"/><linearGradient id="an" x1="0.503" y1="-14.199" x2="0.503" y2="9.762" xlink:href="#a"/><linearGradient id="ao" x1="0.503" y1="-2.394" x2="0.503" y2="3.479" xlink:href="#a"/><linearGradient id="ap" x1="0.5" y1="1.268" x2="0.5" y2="-0.014" xlink:href="#a"/></defs><g transform="translate(0 0)"><circle cx="41.5" cy="41.5" r="41.5" fill="url(#a)"/><circle cx="38.5" cy="38.5" r="38.5" transform="translate(3 3)" fill="#00807e"/></g><g transform="translate(23.942 15.309)"><g transform="translate(0 0)"><g transform="translate(11.568)"><path d="M229.591,98.9v6.59a7.384,7.384,0,0,0-3.729,1.243c-.017.017-.034.034-.051.034l.017-.2.034-.681a1.908,1.908,0,0,0,.153-1.243c-.136-.324-.511-.17-.545.187a1.278,1.278,0,0,1,.443-1.618l-.119-.2-.136-.2-.358-.562.375-1.805.92,1.192s0,.255-.051.715c-.017.1-.017.221-.034.358-.017.153-.034.307-.051.477.92.119.749,1.141.749,1.141s-.477-.664-.647.153a.864.864,0,0,0,.426,1.056l.681-1.328s.272.255.988.92c.528-.494.954-1.805.221-1.805-.715,0-.409.988-.409.988a1.061,1.061,0,0,1-.954-1.175.816.816,0,0,1,.255-.647.611.611,0,0,1,.17-.119,1.743,1.743,0,0,1,.954-.1l-.426-.971Z" transform="translate(-224.551 -98.9)" fill="#fff"/><g transform="translate(0 2.827)"><path d="M224.8,116.522l-.119.153-.562-.426-.681-.511-.579.749-.29.358-.443-.051-.988-.1,1.022,3.644.051.17c-.017.017-.034.034-.051.034-.051.034-.085.051-.1.085l-1.158-4.138,1.124.119.477.051.409-.511.511-.647.886.664Z" transform="translate(-220.9 -115.5)" fill="#fff"/></g><g transform="translate(5.04)"><path d="M254.638,104.843c-.017-.358-.409-.511-.545-.187a1.908,1.908,0,0,0,.153,1.243l.034.681.017.2c-.017-.017-.034-.034-.051-.034a5.935,5.935,0,0,0-3.746-1.243V98.9l1.107,2.4-.426.971a1.743,1.743,0,0,1,.954.1.613.613,0,0,1,.17.119.817.817,0,0,1,.255.647,1.07,1.07,0,0,1-.971,1.175s.306-.988-.409-.988-.307,1.311.221,1.805c.715-.664.988-.92.988-.92l.681,1.328a.864.864,0,0,0,.426-1.056c-.17-.817-.647-.153-.647-.153s-.17-1,.749-1.141c-.017-.17-.034-.324-.051-.477-.017-.136-.017-.255-.034-.358-.034-.46-.051-.715-.051-.715l.92-1.192.375,1.805-.358.562-.136.2-.119.2A1.266,1.266,0,0,1,254.638,104.843Z" transform="translate(-250.5 -98.9)" fill="url(#b)"/><g transform="translate(1.158 2.827)"><path d="M261.2,116.488l-1.158,4.138c-.034-.034-.068-.051-.1-.085-.017-.017-.034-.034-.051-.034l.051-.153,1.022-3.644-.988.1-.443.051-.29-.358-.579-.749-.681.511-.562.426-.119-.153.494-.375.885-.664.511.647.409.511.477-.051Z" transform="translate(-257.3 -115.5)" fill="url(#c)"/></g></g></g><g transform="translate(0 7.458)"><g transform="translate(6.341)"><g transform="translate(7.492)"><path d="M237.093,286.722l2.742-.119v-.868l-2.742-.034-2.793.034v.868Z" transform="translate(-234.283 -261.349)" fill="#fff"/><path d="M239.834,174.959v-1.516l-2.759-1.243-2.776,1.277v1.516l2.776-1.124Z" transform="translate(-234.283 -167.176)" fill="#fff"/><path d="M239.834,202.9v-1.362l-2.759-.937-2.776.954V202.9l2.793-.783Z" transform="translate(-234.283 -190.74)" fill="#fff"/><path d="M234.3,229.63v1.209l2.793-.494,2.742.494V229.63l-2.742-.63Z" transform="translate(-234.283 -214.304)" fill="#fff"/><path d="M239.834,188.937V187.49l-2.759-1.09-2.776,1.124v1.43l2.776-.971Z" transform="translate(-234.283 -178.958)" fill="#fff"/><path d="M237.093,272.607h.017l2.725.034v-.954l-2.742-.187-2.793.187v.954Z" transform="translate(-234.283 -249.567)" fill="#fff"/><path d="M239.834,161v-1.6l-2.759-1.4-2.776,1.447v1.584l2.776-1.277Z" transform="translate(-234.283 -155.394)" fill="#fff"/><path d="M237.093,258.492l2.742.187v-1.039l-2.742-.341-2.793.341v1.039Z" transform="translate(-234.283 -237.785)" fill="#fff"/><path d="M239.834,244.718v-1.124l-2.742-.494-2.793.494v1.124l2.793-.341Z" transform="translate(-234.283 -226.003)" fill="#fff"/><path d="M237.093,300.322l2.742-.255V299.3l-2.742.1-2.793-.1v.766Z" transform="translate(-234.283 -272.633)" fill="#fff"/><path d="M239.817,366.338l.017.017V366.1l-2.708.868-2.827-.834v.255l2.793.954Z" transform="translate(-234.283 -328.058)" fill="#fff"/><path d="M236.993,144.723l2.759,1.4v-2.367h0a4.057,4.057,0,0,0-2.776-1.056,4.978,4.978,0,0,0-2.742,1.022.053.053,0,0,1-.034.017h0v2.418Z" transform="translate(-234.2 -142.695)" fill="#fff"/><path d="M237.093,353.926l2.742-.868V352.7l-2.725.715-2.81-.681v.358Z" transform="translate(-234.283 -316.94)" fill="#fff"/><path d="M239.834,216.86v-1.277l-2.742-.783-2.793.8v1.26l2.793-.63Z" transform="translate(-234.283 -202.522)" fill="#fff"/><path d="M237.093,313.69l2.742-.409V312.6l-2.725.255-2.81-.255v.681Z" transform="translate(-234.283 -283.668)" fill="#fff"/><path d="M237.093,340.492l2.742-.732v-.46l-2.725.562-2.81-.545v.477Z" transform="translate(-234.283 -305.821)" fill="#fff"/><path d="M237.093,327.124l2.742-.562V326l-2.725.409L234.3,326v.579Z" transform="translate(-234.283 -294.786)" fill="#fff"/></g><g transform="translate(10.268)"><path d="M250.534,286.722l2.742-.119v-.868l-2.742-.034H250.5v1.022Z" transform="translate(-250.5 -261.349)" fill="url(#d)"/><path d="M253.276,174.959v-1.516l-2.759-1.243-.017.017v1.669l.017-.017Z" transform="translate(-250.5 -167.176)" fill="url(#e)"/><path d="M253.276,188.937V187.49l-2.759-1.09-.017.017V188l.017-.017Z" transform="translate(-250.5 -178.958)" fill="url(#f)"/><path d="M250.534,258.492l2.742.187v-1.039l-2.742-.341H250.5v1.192Z" transform="translate(-250.5 -237.785)" fill="url(#g)"/><path d="M253.276,161v-1.6l-2.759-1.4-.017.017v1.754l.017-.017Z" transform="translate(-250.5 -155.394)" fill="url(#h)"/><path d="M253.276,202.9v-1.362l-2.759-.937H250.5v1.516h.034Z" transform="translate(-250.5 -190.74)" fill="url(#i)"/><path d="M253.276,244.718v-1.124l-2.742-.494-.034.017v1.26h.034Z" transform="translate(-250.5 -226.003)" fill="url(#j)"/><path d="M250.534,272.607h.017l2.725.034v-.954l-2.742-.187H250.5v1.107Z" transform="translate(-250.5 -249.567)" fill="url(#k)"/><path d="M250.5,229v1.345h.034l2.742.494V229.63l-2.742-.63Z" transform="translate(-250.5 -214.304)" fill="url(#l)"/><path d="M253.276,216.86v-1.277l-2.742-.783H250.5v1.43h.034Z" transform="translate(-250.5 -202.522)" fill="url(#m)"/><path d="M250.517,144.723l2.759,1.4v-2.367h0A4.057,4.057,0,0,0,250.5,142.7l.017,2.026Z" transform="translate(-250.5 -142.695)" fill="url(#n)"/><path d="M250.534,353.926l2.742-.868V352.7l-2.725.715-.051-.017v.511Z" transform="translate(-250.5 -316.94)" fill="url(#o)"/><path d="M253.259,366.338l.017.017V366.1l-2.708.868-.068-.017v.392h.034Z" transform="translate(-250.5 -328.058)" fill="url(#p)"/><path d="M250.534,300.322l2.742-.255V299.3l-2.742.1H250.5v.92Z" transform="translate(-250.5 -272.633)" fill="url(#q)"/><path d="M250.534,313.69l2.742-.409V312.6l-2.725.255H250.5v.834Z" transform="translate(-250.5 -283.668)" fill="url(#r)"/><path d="M250.534,327.124l2.742-.562V326l-2.725.409H250.5v.715Z" transform="translate(-250.5 -294.786)" fill="url(#s)"/><path d="M250.534,340.492l2.742-.732v-.46l-2.725.562H250.5v.613Z" transform="translate(-250.5 -305.821)" fill="url(#t)"/></g><g transform="translate(3.491 5.688)"><path d="M213.374,273.337a.622.622,0,0,1,.392-.017v-.92l-2.588,1.124a.524.524,0,0,1-.221.051.444.444,0,0,1-.255-.068v.834c.017,0,.017-.017.034-.017Z" transform="translate(-210.7 -256.002)" fill="#fff"/><path d="M210.717,333.381l2.861-.375a.69.69,0,0,1,.187,0V332.7l-2.759.494a.7.7,0,0,1-.307,0v.2Z" transform="translate(-210.7 -306.033)" fill="#fff"/><path d="M213.408,285.3a.847.847,0,0,1,.358-.017V284.5l-2.605,1a.466.466,0,0,1-.221.034.544.544,0,0,1-.238-.051v.7h.017Z" transform="translate(-210.7 -266.041)" fill="#fff"/><path d="M213.476,309.162a1.661,1.661,0,0,1,.29-.017V308.6l-2.673.749a.728.728,0,0,1-.187.034.859.859,0,0,1-.2-.034v.443h0Z" transform="translate(-210.7 -286.037)" fill="#fff"/><path d="M213.339,261.539a.529.529,0,0,1,.426,0V260.5h0l-2.554,1.26a.471.471,0,0,1-.221.051.463.463,0,0,1-.289-.1v.988c.017,0,.034-.017.051-.017Z" transform="translate(-210.7 -246.128)" fill="#fff"/><path d="M213.322,249.492a.5.5,0,0,1,.443,0V248.3c-.017,0-.017.017-.034.017l-2.52,1.4a.453.453,0,0,1-.2.051.489.489,0,0,1-.306-.119V250.8a.089.089,0,0,1,.068-.034Z" transform="translate(-210.7 -236.006)" fill="#fff"/><path d="M213.527,321.126a.562.562,0,0,1,.238,0V320.7l-2.725.613a.579.579,0,0,1-.17.017c-.068,0-.119-.017-.17-.017v.324h.017Z" transform="translate(-210.7 -296.077)" fill="#fff"/><path d="M213.442,297.181a.7.7,0,0,1,.324-.017V296.5l-2.639.868a.855.855,0,0,1-.2.034,1,1,0,0,1-.221-.034v.562h0Z" transform="translate(-210.7 -275.998)" fill="#fff"/><path d="M217.8,356.853l1.788-.068h.068V356.7Z" transform="translate(-216.591 -325.947)" fill="#fff"/><path d="M213.7,236.151l-2.469,1.515a.453.453,0,0,1-.2.051.386.386,0,0,1-.324-.187h0v1.362a.218.218,0,0,1,.1-.068l2.5-1.379a.445.445,0,0,1,.46.017V236.1C213.748,236.134,213.731,236.151,213.7,236.151Z" transform="translate(-210.7 -225.883)" fill="#fff"/><path d="M210.836,187.254l2.469-1.516a.384.384,0,0,1,.46.051v-1.567a.229.229,0,0,1-.1.119l-2.435,1.652a.344.344,0,0,1-.187.051.356.356,0,0,1-.272-.136.329.329,0,0,1,.085-.46l2.435-1.652a.329.329,0,0,1,.46.085c0,.017.017.017.017.034V176.1l-3.065,2.963v8.327A.266.266,0,0,1,210.836,187.254Zm.17-7.254,2.3-2.026a.157.157,0,1,1,.2.238l-2.3,2.026a.125.125,0,0,1-.1.034.154.154,0,0,1-.119-.051A.161.161,0,0,1,211.007,180Zm-.051,1.822,2.35-1.89a.218.218,0,0,1,.272.341l-2.35,1.89a.193.193,0,0,1-.136.051.236.236,0,0,1-.17-.085A.232.232,0,0,1,210.955,181.822Zm-.051,1.805,2.384-1.771a.267.267,0,1,1,.324.426l-2.384,1.771a.276.276,0,0,1-.375-.051A.271.271,0,0,1,210.9,183.627Z" transform="translate(-210.7 -176.1)" fill="#fff"/><path d="M213.629,344.8h.136v-.2l-2.81.375h-.119a.374.374,0,0,1-.136-.017v.085h.034Z" transform="translate(-210.7 -315.907)" fill="#fff"/></g><g transform="translate(13.963 5.688)"><path d="M274.854,249.713l-2.52-1.4c-.017,0-.017-.017-.034-.017v1.192a.5.5,0,0,1,.443,0l2.554,1.26a.129.129,0,0,0,.068.034v-1.158a.41.41,0,0,1-.306.119A.293.293,0,0,1,274.854,249.713Z" transform="translate(-272.283 -236.006)" fill="url(#u)"/><path d="M272.641,297.264l2.724.766h0v-.562a.681.681,0,0,1-.426,0L272.3,296.6v.664A1.142,1.142,0,0,1,272.641,297.264Z" transform="translate(-272.283 -276.081)" fill="url(#v)"/><path d="M272.638,321.126l2.81.511h.017v-.324a.86.86,0,0,1-.341,0L272.4,320.7v.426A.56.56,0,0,1,272.638,321.126Z" transform="translate(-272.366 -296.077)" fill="url(#w)"/><path d="M272.589,309.162l2.776.63h0v-.443a.852.852,0,0,1-.2.034.367.367,0,0,1-.187-.034L272.3,308.6v.545A.548.548,0,0,1,272.589,309.162Z" transform="translate(-272.283 -286.037)" fill="url(#x)"/><path d="M272.809,261.456l2.605,1.141c.017,0,.034.017.051.017v-.988a.574.574,0,0,1-.289.085.525.525,0,0,1-.221-.051L272.4,260.4h0v1.056A.563.563,0,0,1,272.809,261.456Z" transform="translate(-272.366 -246.045)" fill="url(#y)"/><path d="M272.758,285.3l2.69.885h.017v-.7a.544.544,0,0,1-.238.051,1.173,1.173,0,0,1-.221-.034l-2.605-1v.783A.859.859,0,0,1,272.758,285.3Z" transform="translate(-272.366 -266.041)" fill="url(#z)"/><path d="M272.792,273.42l2.639,1c.017,0,.017.017.034.017v-.834a.481.481,0,0,1-.255.068.523.523,0,0,1-.221-.051L272.4,272.5v.92A.519.519,0,0,1,272.792,273.42Z" transform="translate(-272.366 -256.085)" fill="url(#aa)"/><path d="M272.587,332.924l2.861.375h.017v-.2a.7.7,0,0,1-.307,0L272.4,332.6v.307A.765.765,0,0,1,272.587,332.924Z" transform="translate(-272.366 -305.951)" fill="url(#ab)"/><path d="M272.436,344.887l2.895.255h.034v-.085c-.051,0-.085.017-.136.017h-.119l-2.81-.375v.2A.426.426,0,0,1,272.436,344.887Z" transform="translate(-272.283 -315.99)" fill="url(#ac)"/><path d="M275.365,237.63a.386.386,0,0,1-.324.187.454.454,0,0,1-.2-.051l-2.469-1.516c-.017-.017-.051-.034-.068-.051v1.362a.445.445,0,0,1,.46-.017l2.52,1.4a.371.371,0,0,1,.085.068V237.63Z" transform="translate(-272.283 -225.966)" fill="url(#ad)"/><path d="M272.251,183.882a.311.311,0,0,1,.443-.085l2.435,1.652a.329.329,0,0,1,.085.46.355.355,0,0,1-.272.136.389.389,0,0,1-.187-.051l-2.435-1.652a.229.229,0,0,1-.1-.119v1.567a.361.361,0,0,1,.46-.051l2.469,1.516a.3.3,0,0,1,.119.136v-8.327L272.2,176.1v7.816A.131.131,0,0,0,272.251,183.882Zm.2-5.892a.159.159,0,0,1,.221-.017l2.3,2.026a.159.159,0,0,1,.017.221.154.154,0,0,1-.119.051.242.242,0,0,1-.1-.034l-2.3-2.026A.159.159,0,0,1,272.455,177.99Zm-.068,1.958a.232.232,0,0,1,.306-.034l2.35,1.89a.232.232,0,0,1,.034.307.237.237,0,0,1-.17.085.193.193,0,0,1-.136-.051l-2.35-1.89A.216.216,0,0,1,272.387,179.948Zm-.068,1.975a.255.255,0,0,1,.375-.051l2.384,1.771a.255.255,0,0,1,.051.375.275.275,0,0,1-.221.1.238.238,0,0,1-.153-.051L272.37,182.3A.269.269,0,0,1,272.319,181.924Z" transform="translate(-272.2 -176.1)" fill="url(#ae)"/><path d="M274.156,356.77l-1.856-.17v.085h.068Z" transform="translate(-272.283 -325.864)" fill="url(#af)"/></g><g transform="translate(17.948 12.704)"><path d="M296.06,314.938l1.056.341L295.6,314.7v.221A.843.843,0,0,1,296.06,314.938Z" transform="translate(-295.6 -298.114)" fill="url(#ag)"/><path d="M295.6,325.2v.051c.034,0,.068-.017.1-.017Z" transform="translate(-295.6 -306.826)" fill="url(#ah)"/><path d="M296.177,304.709l2.094.8v-.29a.6.6,0,0,1-.238.051.683.683,0,0,1-.255-.051l-2.077-.92v.409A.58.58,0,0,1,296.177,304.709Z" transform="translate(-295.683 -289.485)" fill="url(#ai)"/><path d="M296.111,294.562l2.077.92V295a.713.713,0,0,1-.255.068.684.684,0,0,1-.255-.051L295.617,294H295.6v.579A.543.543,0,0,1,296.111,294.562Z" transform="translate(-295.6 -280.939)" fill="url(#aj)"/><path d="M309.334,319.534H309.3l.255.085V319.5A.467.467,0,0,1,309.334,319.534Z" transform="translate(-306.967 -302.097)" fill="url(#ak)"/><path d="M297.76,284.358l-2.026-1.124a.037.037,0,0,1-.034-.034v.783a.543.543,0,0,1,.511,0l2.06,1.022h.017v-.681a.515.515,0,0,1-.272.085A.335.335,0,0,1,297.76,284.358Z" transform="translate(-295.683 -271.978)" fill="url(#al)"/><path d="M296.194,262.926l1.992,1.226a.3.3,0,0,1,.085.068v-1.192c-.017.034-.017.051-.034.068a.327.327,0,0,1-.272.153.343.343,0,0,1-.187-.051l-1.958-1.328a.246.246,0,0,1-.119-.17v1.294A.389.389,0,0,1,296.194,262.926Z" transform="translate(-295.683 -254.139)" fill="url(#am)"/><path d="M296.128,273.671l2.026,1.124a.037.037,0,0,1,.034.034v-.9a.42.42,0,0,1-.289.136.374.374,0,0,1-.221-.068l-1.992-1.226a.3.3,0,0,1-.085-.068v1A.493.493,0,0,1,296.128,273.671Z" transform="translate(-295.6 -263.266)" fill="url(#an)"/><path d="M295.651,224.571a.329.329,0,0,1,.46-.085l1.958,1.328a.246.246,0,0,1,.119.17v-5.841L295.6,217.3v7.356A.371.371,0,0,1,295.651,224.571Zm.255-4.955a.105.105,0,0,1,.136-.017l1.856,1.635a.106.106,0,0,1,.017.136.129.129,0,0,1-.068.034.1.1,0,0,1-.068-.017l-1.856-1.635A.08.08,0,0,1,295.907,219.616Zm-.085,1.652a.207.207,0,0,1,.255-.034l1.89,1.533a.206.206,0,0,1,.034.255.155.155,0,0,1-.136.068.183.183,0,0,1-.1-.034l-1.89-1.533A.166.166,0,0,1,295.821,221.268Zm-.085,1.652a.249.249,0,0,1,.358-.051l1.924,1.43a.249.249,0,0,1,.051.358.243.243,0,0,1-.2.1.274.274,0,0,1-.153-.051l-1.924-1.43A.251.251,0,0,1,295.736,222.919Z" transform="translate(-295.6 -217.3)" fill="url(#ao)"/></g><g transform="translate(0 12.687)"><path d="M192.871,293.8l-2.06,1.022a.683.683,0,0,1-.255.051.444.444,0,0,1-.255-.068v.477l2.095-.92a.664.664,0,0,1,.511,0l-.034-.562Z" transform="translate(-190.283 -280.756)" fill="#fff"/><path d="M196.5,315.279l1.056-.341a.843.843,0,0,1,.46-.017V314.7Z" transform="translate(-195.427 -298.097)" fill="#fff"/><path d="M204.9,325.234a.216.216,0,0,1,.1.017V325.2Z" transform="translate(-202.397 -306.809)" fill="#fff"/><path d="M190.2,319.5v.119l.255-.085h-.034A.5.5,0,0,1,190.2,319.5Z" transform="translate(-190.2 -302.08)" fill="#fff"/><path d="M192.36,283.983a.6.6,0,0,1,.511,0V283.2l-.034.034-2.026,1.124a.554.554,0,0,1-.238.068.471.471,0,0,1-.272-.085v.681h.017Z" transform="translate(-190.283 -271.961)" fill="#fff"/><path d="M190.794,305.12a.684.684,0,0,1-.255.051.544.544,0,0,1-.238-.051v.289l2.112-.8a.7.7,0,0,1,.494,0V304.2Z" transform="translate(-190.283 -289.385)" fill="#fff"/><path d="M190.336,225.731l1.958-1.328a.329.329,0,0,1,.46.085.129.129,0,0,1,.034.068V217.2l-2.588,2.844V225.9A.271.271,0,0,1,190.336,225.731Zm.17-4.564,1.856-1.635a.1.1,0,0,1,.119.153l-1.856,1.635c-.017.017-.034.017-.068.017a.089.089,0,0,1-.068-.034A.09.09,0,0,1,190.506,221.168Zm-.068,1.516,1.89-1.533a.182.182,0,1,1,.221.29l-1.89,1.533a.125.125,0,0,1-.1.034.155.155,0,0,1-.136-.068A.185.185,0,0,1,190.438,222.683Zm-.051,1.533,1.924-1.43a.255.255,0,0,1,.307.409l-1.924,1.43a.274.274,0,0,1-.153.051.243.243,0,0,1-.2-.1A.249.249,0,0,1,190.387,224.216Z" transform="translate(-190.2 -217.2)" fill="#fff"/><path d="M192.752,261.787l-1.958,1.328a.344.344,0,0,1-.187.051.327.327,0,0,1-.272-.153.13.13,0,0,1-.034-.085v1.192a.37.37,0,0,1,.085-.068l1.992-1.226a.413.413,0,0,1,.511.068V261.6A.413.413,0,0,1,192.752,261.787Z" transform="translate(-190.283 -254.039)" fill="#fff"/><path d="M192.8,272.768l-1.992,1.226a.483.483,0,0,1-.221.068.364.364,0,0,1-.289-.136v.9c.017-.017.034-.017.034-.034l2.026-1.124a.5.5,0,0,1,.511.034v-1C192.854,272.717,192.82,272.734,192.8,272.768Z" transform="translate(-190.283 -263.249)" fill="#fff"/></g></g><g transform="translate(0 27.093)"><path d="M184.1,303.333l-.17-.1-.477-.289-.307-.187-1.6-.954,1.5,1.584a3.754,3.754,0,0,1,.954,1.686,2.414,2.414,0,0,1,.068.341c0,.034.017.068.017.119a3.924,3.924,0,0,1-2.111,3.746l-9.076,5.449a5.748,5.748,0,0,1-5.909,0l-9.076-5.449a3.9,3.9,0,0,1-2.112-3.746.332.332,0,0,1,.017-.119,2.408,2.408,0,0,1,.068-.341,3.845,3.845,0,0,1,.954-1.686l1.5-1.584-1.6.954-.324.187-.477.289-.17.1a4.754,4.754,0,0,0-2.265,3.3,4.811,4.811,0,0,0,2.265,3.286l9.723,5.841a8.622,8.622,0,0,0,8.906,0l9.723-5.841a4.758,4.758,0,0,0,2.265-3.286A4.813,4.813,0,0,0,184.1,303.333Z" transform="translate(-153.409 -301.8)" fill="#fff"/><path d="M183.655,336.932l-9.723,5.841a8.622,8.622,0,0,1-8.906,0l-9.723-5.841a4.82,4.82,0,0,1-2.316-4.632,4.8,4.8,0,0,0,2.316,3.661l9.723,5.841a8.623,8.623,0,0,0,8.906,0l9.723-5.841a4.76,4.76,0,0,0,2.316-3.661A4.789,4.789,0,0,1,183.655,336.932Z" transform="translate(-152.964 -327.106)" fill="url(#ap)"/></g></g></g></g></svg>