<svg xmlns="http://www.w3.org/2000/svg" xmlns:xlink="http://www.w3.org/1999/xlink" width="61.861" height="96.357" viewBox="0 0 61.861 96.357"><defs><linearGradient id="a" x1="0.505" y1="-0.08" x2="0.505" y2="6.389" gradientUnits="objectBoundingBox"><stop offset="0" stop-color="#e4a900"/><stop offset="1" stop-color="#fefab1"/></linearGradient><linearGradient id="b" x1="0.499" y1="-0.674" x2="0.499" y2="9.277" xlink:href="#a"/><linearGradient id="c" x1="0.501" y1="-31.748" x2="0.501" y2="18.172" xlink:href="#a"/><linearGradient id="d" x1="0.501" y1="-4.752" x2="0.501" y2="13.736" xlink:href="#a"/><linearGradient id="e" x1="0.501" y1="-6.12" x2="0.501" y2="13.982" xlink:href="#a"/><linearGradient id="f" x1="0.501" y1="-20.011" x2="0.501" y2="16.967" xlink:href="#a"/><linearGradient id="g" x1="0.501" y1="-3.568" x2="0.501" y2="13.451" xlink:href="#a"/><linearGradient id="h" x1="0.501" y1="-7.807" x2="0.501" y2="14.38" xlink:href="#a"/><linearGradient id="i" x1="0.501" y1="-15.567" x2="0.501" y2="15.961" xlink:href="#a"/><linearGradient id="j" x1="0.501" y1="-26.312" x2="0.501" y2="18.393" xlink:href="#a"/><linearGradient id="k" x1="0.501" y1="-12.388" x2="0.501" y2="15.346" xlink:href="#a"/><linearGradient id="l" x1="0.501" y1="-9.883" x2="0.501" y2="14.87" xlink:href="#a"/><linearGradient id="m" x1="0.501" y1="-2.362" x2="0.501" y2="12.536" xlink:href="#a"/><linearGradient id="n" x1="0.501" y1="-35.763" x2="0.501" y2="5.838" xlink:href="#a"/><linearGradient id="o" x1="0.501" y1="-37.108" x2="0.501" y2="3.922" xlink:href="#a"/><linearGradient id="p" x1="0.501" y1="-34.015" x2="0.501" y2="15.905" xlink:href="#a"/><linearGradient id="q" x1="0.501" y1="-33.967" x2="0.501" y2="12.833" xlink:href="#a"/><linearGradient id="r" x1="0.501" y1="-34.968" x2="0.501" y2="10.414" xlink:href="#a"/><linearGradient id="s" x1="0.501" y1="-34.87" x2="0.501" y2="7.919" xlink:href="#a"/><linearGradient id="t" x1="0.503" y1="-10.486" x2="0.503" y2="10.03" xlink:href="#a"/><linearGradient id="u" x1="0.503" y1="-23.975" x2="0.503" y2="11.682" xlink:href="#a"/><linearGradient id="v" x1="0.497" y1="-40.998" x2="0.497" y2="13.46" xlink:href="#a"/><linearGradient id="w" x1="0.503" y1="-30.484" x2="0.503" y2="12.304" xlink:href="#a"/><linearGradient id="x" x1="0.497" y1="-12.707" x2="0.497" y2="10.333" xlink:href="#a"/><linearGradient id="y" x1="0.497" y1="-19.12" x2="0.497" y2="11.134" xlink:href="#a"/><linearGradient id="z" x1="0.497" y1="-15.552" x2="0.497" y2="10.722" xlink:href="#a"/><linearGradient id="aa" x1="0.497" y1="-57.9" x2="0.497" y2="15.154" xlink:href="#a"/><linearGradient id="ab" x1="0.503" y1="-95.957" x2="0.503" y2="19.243" xlink:href="#a"/><linearGradient id="ac" x1="0.503" y1="-8.545" x2="0.503" y2="9.608" xlink:href="#a"/><linearGradient id="ad" x1="0.507" y1="-1.22" x2="0.507" y2="3.298" xlink:href="#a"/><linearGradient id="ae" x1="0.505" y1="-261.39" x2="0.505" y2="38.131" xlink:href="#a"/><linearGradient id="af" x1="0.506" y1="-64.556" x2="0.506" y2="23.539" xlink:href="#a"/><linearGradient id="ag" x1="0.537" y1="-766.663" x2="0.537" y2="231.779" xlink:href="#a"/><linearGradient id="ah" x1="0.499" y1="-29.449" x2="0.499" y2="12.737" xlink:href="#a"/><linearGradient id="ai" x1="0.503" y1="-22.849" x2="0.503" y2="11.578" xlink:href="#a"/><linearGradient id="aj" x1="0.534" y1="-320.408" x2="0.534" y2="107.471" xlink:href="#a"/><linearGradient id="ak" x1="0.496" y1="-17.735" x2="0.496" y2="10.522" xlink:href="#a"/><linearGradient id="al" x1="0.499" y1="-11.249" x2="0.499" y2="8.989" xlink:href="#a"/><linearGradient id="am" x1="0.503" y1="-14.199" x2="0.503" y2="9.762" xlink:href="#a"/><linearGradient id="an" x1="0.503" y1="-2.394" x2="0.503" y2="3.479" xlink:href="#a"/><linearGradient id="ao" x1="0.5" y1="1.268" x2="0.5" y2="-0.014" xlink:href="#a"/></defs><g transform="translate(0 0)"><g transform="translate(21.663)"><path d="M233.336,98.9v12.341a13.828,13.828,0,0,0-6.984,2.328c-.032.032-.064.064-.1.064l.032-.383.064-1.276a3.573,3.573,0,0,0,.287-2.328c-.255-.606-.957-.319-1.02.351a2.393,2.393,0,0,1,.829-3.029l-.223-.383-.255-.383-.67-1.052.7-3.38L227.723,104s0,.478-.1,1.339c-.032.191-.032.415-.064.67-.032.287-.064.574-.1.893,1.722.223,1.4,2.136,1.4,2.136s-.893-1.244-1.212.287a1.618,1.618,0,0,0,.8,1.977l1.275-2.487s.51.478,1.85,1.722c.988-.925,1.786-3.38.414-3.38-1.339,0-.765,1.849-.765,1.849a1.986,1.986,0,0,1-1.786-2.2,1.529,1.529,0,0,1,.478-1.212,1.144,1.144,0,0,1,.319-.223,3.264,3.264,0,0,1,1.786-.191l-.8-1.818Z" transform="translate(-223.897 -98.9)" fill="#fff"/><g transform="translate(0 5.293)"><path d="M228.2,117.413l-.223.287-1.052-.8-1.275-.957-1.084,1.4-.542.67-.829-.1-1.849-.191,1.913,6.824.1.319c-.032.032-.064.064-.1.064-.1.064-.159.1-.191.159l-2.168-7.749,2.1.223.893.1.765-.957.957-1.212,1.658,1.244Z" transform="translate(-220.9 -115.5)" fill="#fff"/></g><g transform="translate(9.439)"><path d="M258.249,110.029c-.032-.67-.765-.957-1.02-.351a3.574,3.574,0,0,0,.287,2.328l.064,1.276.032.383c-.032-.032-.064-.064-.1-.064a11.114,11.114,0,0,0-7.015-2.328V98.9l2.073,4.5-.8,1.818a3.263,3.263,0,0,1,1.786.191,1.148,1.148,0,0,1,.319.223,1.529,1.529,0,0,1,.478,1.212,2,2,0,0,1-1.818,2.2s.574-1.85-.765-1.85-.574,2.455.415,3.38c1.339-1.244,1.849-1.722,1.849-1.722l1.275,2.487a1.618,1.618,0,0,0,.8-1.977c-.319-1.531-1.212-.287-1.212-.287s-.319-1.881,1.4-2.137c-.032-.319-.064-.606-.1-.893-.032-.255-.032-.478-.064-.67-.064-.861-.1-1.339-.1-1.339l1.722-2.232.7,3.38-.67,1.052-.255.383-.223.383A2.372,2.372,0,0,1,258.249,110.029Z" transform="translate(-250.5 -98.9)" fill="url(#a)"/><g transform="translate(2.168 5.293)"><path d="M264.6,117.35l-2.168,7.749c-.064-.064-.127-.1-.191-.16-.032-.032-.064-.064-.1-.064l.1-.287,1.913-6.824-1.849.191-.829.1-.542-.67-1.084-1.4-1.276.957-1.052.8-.223-.287.925-.7,1.658-1.244.957,1.212.765.957.893-.1Z" transform="translate(-257.3 -115.5)" fill="url(#b)"/></g></g></g><g transform="translate(0 13.965)"><g transform="translate(11.874)"><g transform="translate(14.031)"><path d="M239.53,287.613l5.134-.223v-1.626l-5.134-.064-5.23.064v1.626Z" transform="translate(-234.268 -240.099)" fill="#fff"/><path d="M244.664,177.366v-2.838L239.5,172.2l-5.2,2.392v2.838l5.2-2.1Z" transform="translate(-234.268 -162.792)" fill="#fff"/><path d="M244.664,204.9v-2.551L239.5,200.6l-5.2,1.786V204.9l5.23-1.467Z" transform="translate(-234.268 -182.135)" fill="#fff"/><path d="M234.3,230.18v2.264l5.23-.925,5.134.925V230.18L239.53,229Z" transform="translate(-234.268 -201.479)" fill="#fff"/><path d="M244.664,191.151v-2.711L239.5,186.4l-5.2,2.1v2.679l5.2-1.818Z" transform="translate(-234.268 -172.464)" fill="#fff"/><path d="M239.53,273.573h.032l5.1.064v-1.786l-5.134-.351-5.23.351v1.786Z" transform="translate(-234.268 -230.427)" fill="#fff"/><path d="M244.664,163.612v-3L239.5,158l-5.2,2.711v2.965l5.2-2.392Z" transform="translate(-234.268 -153.12)" fill="#fff"/><path d="M239.53,259.532l5.134.351v-1.945l-5.134-.638-5.23.638v1.945Z" transform="translate(-234.268 -220.755)" fill="#fff"/><path d="M244.664,246.129v-2.1l-5.134-.925-5.23.925v2.1l5.23-.638Z" transform="translate(-234.268 -211.083)" fill="#fff"/><path d="M239.53,301.213l5.134-.478V299.3l-5.134.191-5.23-.191v1.435Z" transform="translate(-234.268 -249.362)" fill="#fff"/><path d="M244.632,366.546l.032.032V366.1l-5.07,1.626-5.293-1.562v.478l5.23,1.786Z" transform="translate(-234.268 -294.861)" fill="#fff"/><path d="M239.43,146.492l5.166,2.615v-4.432h0a7.6,7.6,0,0,0-5.2-1.977,9.323,9.323,0,0,0-5.134,1.913.1.1,0,0,1-.064.032h0v4.528Z" transform="translate(-234.2 -142.695)" fill="#fff"/><path d="M239.53,355l5.134-1.626v-.67l-5.1,1.339-5.262-1.276v.67Z" transform="translate(-234.268 -285.734)" fill="#fff"/><path d="M244.664,218.659v-2.392L239.53,214.8l-5.23,1.5v2.36l5.23-1.18Z" transform="translate(-234.268 -191.807)" fill="#fff"/><path d="M239.53,314.641l5.134-.765V312.6l-5.1.478L234.3,312.6v1.276Z" transform="translate(-234.268 -258.421)" fill="#fff"/><path d="M239.53,341.532l5.134-1.372V339.3l-5.1,1.052-5.262-1.02v.893Z" transform="translate(-234.268 -276.607)" fill="#fff"/><path d="M239.53,328.1l5.134-1.052V326l-5.1.765L234.3,326v1.084Z" transform="translate(-234.268 -267.548)" fill="#fff"/></g><g transform="translate(19.228)"><path d="M250.564,287.613l5.134-.223v-1.626l-5.134-.064H250.5v1.913Z" transform="translate(-250.5 -240.099)" fill="url(#c)"/><path d="M255.7,177.366v-2.838l-5.166-2.328-.032.032v3.125l.032-.032Z" transform="translate(-250.5 -162.792)" fill="url(#d)"/><path d="M255.7,191.151v-2.711l-5.166-2.041-.032.032V189.4l.032-.032Z" transform="translate(-250.5 -172.464)" fill="url(#e)"/><path d="M250.564,259.532l5.134.351v-1.945l-5.134-.638H250.5v2.232Z" transform="translate(-250.5 -220.755)" fill="url(#f)"/><path d="M255.7,163.612v-3L250.532,158l-.032.032v3.284l.032-.032Z" transform="translate(-250.5 -153.12)" fill="url(#g)"/><path d="M255.7,204.9v-2.551l-5.166-1.754H250.5v2.838h.064Z" transform="translate(-250.5 -182.135)" fill="url(#h)"/><path d="M255.7,246.129v-2.1l-5.134-.925-.064.032v2.36h.064Z" transform="translate(-250.5 -211.083)" fill="url(#i)"/><path d="M250.564,273.573h.032l5.1.064v-1.786l-5.134-.351H250.5v2.073Z" transform="translate(-250.5 -230.427)" fill="url(#j)"/><path d="M250.5,229v2.519h.064l5.134.925V230.18L250.564,229Z" transform="translate(-250.5 -201.479)" fill="url(#k)"/><path d="M255.7,218.659v-2.392l-5.134-1.467H250.5v2.678h.064Z" transform="translate(-250.5 -191.807)" fill="url(#l)"/><path d="M250.532,146.492l5.166,2.615v-4.432h0a7.6,7.6,0,0,0-5.2-1.977l.032,3.795Z" transform="translate(-250.5 -142.695)" fill="url(#m)"/><path d="M250.564,355l5.134-1.626v-.67l-5.1,1.339-.1-.032v.957Z" transform="translate(-250.5 -285.734)" fill="url(#n)"/><path d="M255.666,366.546l.032.032V366.1l-5.07,1.626-.128-.032v.733h.064Z" transform="translate(-250.5 -294.861)" fill="url(#o)"/><path d="M250.564,301.213l5.134-.478V299.3l-5.134.191H250.5v1.722Z" transform="translate(-250.5 -249.362)" fill="url(#p)"/><path d="M250.564,314.641l5.134-.765V312.6l-5.1.478h-.1v1.563Z" transform="translate(-250.5 -258.421)" fill="url(#q)"/><path d="M250.564,328.1l5.134-1.052V326l-5.1.765h-.1V328.1Z" transform="translate(-250.5 -267.548)" fill="url(#r)"/><path d="M250.564,341.532l5.134-1.372V339.3l-5.1,1.052h-.1V341.5Z" transform="translate(-250.5 -276.607)" fill="url(#s)"/></g><g transform="translate(6.537 10.652)"><path d="M215.707,274.154a1.165,1.165,0,0,1,.733-.032V272.4l-4.847,2.1a.979.979,0,0,1-.415.1.83.83,0,0,1-.478-.128v1.563c.032,0,.032-.032.064-.032Z" transform="translate(-210.7 -241.692)" fill="#fff"/><path d="M210.732,333.976l5.357-.7a1.291,1.291,0,0,1,.351,0V332.7l-5.166.925a1.31,1.31,0,0,1-.574,0v.383Z" transform="translate(-210.7 -282.763)" fill="#fff"/><path d="M215.77,286a1.579,1.579,0,0,1,.67-.032V284.5l-4.879,1.881a.873.873,0,0,1-.415.064,1.019,1.019,0,0,1-.446-.1v1.307h.032Z" transform="translate(-210.7 -249.934)" fill="#fff"/><path d="M215.9,309.652a3.107,3.107,0,0,1,.542-.032V308.6l-5.006,1.4a1.363,1.363,0,0,1-.351.064A1.61,1.61,0,0,1,210.7,310v.829h0Z" transform="translate(-210.7 -266.348)" fill="#fff"/><path d="M215.643,262.445a.992.992,0,0,1,.8,0V260.5h0l-4.783,2.36a.883.883,0,0,1-.414.1.867.867,0,0,1-.542-.191v1.849c.032,0,.064-.032.1-.032Z" transform="translate(-210.7 -233.587)" fill="#fff"/><path d="M215.611,250.532a.946.946,0,0,1,.829,0V248.3c-.032,0-.032.032-.063.032l-4.72,2.615a.847.847,0,0,1-.383.1.917.917,0,0,1-.574-.223v2.168a.166.166,0,0,1,.127-.064Z" transform="translate(-210.7 -225.277)" fill="#fff"/><path d="M215.993,321.5a1.053,1.053,0,0,1,.446,0v-.8l-5.1,1.148a1.083,1.083,0,0,1-.319.032c-.127,0-.223-.032-.319-.032v.606h.032Z" transform="translate(-210.7 -274.59)" fill="#fff"/><path d="M215.834,297.776a1.3,1.3,0,0,1,.606-.032V296.5l-4.943,1.626a1.6,1.6,0,0,1-.383.064,1.865,1.865,0,0,1-.415-.064v1.052h0Z" transform="translate(-210.7 -258.107)" fill="#fff"/><path d="M217.8,356.987l3.348-.127h.128V356.7Z" transform="translate(-215.536 -299.11)" fill="#fff"/><path d="M216.312,236.2l-4.624,2.838a.849.849,0,0,1-.383.1.722.722,0,0,1-.606-.351h0v2.551a.408.408,0,0,1,.191-.128l4.688-2.583a.833.833,0,0,1,.861.032V236.1C216.408,236.164,216.376,236.2,216.312,236.2Z" transform="translate(-210.7 -216.967)" fill="#fff"/><path d="M210.955,196.987l4.624-2.838a.718.718,0,0,1,.861.1v-2.934a.428.428,0,0,1-.191.223l-4.56,3.093a.643.643,0,0,1-.351.1.666.666,0,0,1-.51-.255.616.616,0,0,1,.159-.861l4.56-3.093a.615.615,0,0,1,.861.159c0,.032.032.032.032.064V176.1l-5.74,5.548v15.593A.5.5,0,0,1,210.955,196.987Zm.319-13.584,4.3-3.795a.294.294,0,1,1,.383.446l-4.3,3.795a.235.235,0,0,1-.191.064.289.289,0,0,1-.223-.1A.3.3,0,0,1,211.274,183.4Zm-.1,3.412,4.4-3.54a.408.408,0,0,1,.51.638l-4.4,3.54a.363.363,0,0,1-.255.1.443.443,0,0,1-.319-.159A.435.435,0,0,1,211.178,186.814Zm-.1,3.38,4.464-3.316a.5.5,0,1,1,.606.8l-4.464,3.316a.517.517,0,0,1-.7-.1A.508.508,0,0,1,211.083,190.195Z" transform="translate(-210.7 -176.1)" fill="#fff"/><path d="M216.185,344.983h.255V344.6l-5.262.7h-.223a.7.7,0,0,1-.255-.032v.159h.064Z" transform="translate(-210.7 -290.869)" fill="#fff"/></g><g transform="translate(26.148 10.652)"><path d="M277.083,250.947l-4.72-2.615c-.032,0-.032-.032-.064-.032v2.232a.945.945,0,0,1,.829,0l4.783,2.36a.241.241,0,0,0,.127.064v-2.169a.768.768,0,0,1-.574.223A.549.549,0,0,1,277.083,250.947Z" transform="translate(-272.268 -225.277)" fill="url(#t)"/><path d="M272.938,297.844l5.1,1.435h0v-1.052a1.276,1.276,0,0,1-.8,0L272.3,296.6v1.243A2.136,2.136,0,0,1,272.938,297.844Z" transform="translate(-272.268 -258.175)" fill="url(#u)"/><path d="M272.846,321.5l5.261.957h.032v-.606a1.609,1.609,0,0,1-.638,0l-5.1-1.148v.8A1.051,1.051,0,0,1,272.846,321.5Z" transform="translate(-272.336 -274.59)" fill="url(#v)"/><path d="M272.842,309.652l5.2,1.18h0V310a1.6,1.6,0,0,1-.383.064.687.687,0,0,1-.351-.064l-5.006-1.4v1.02A1.027,1.027,0,0,1,272.842,309.652Z" transform="translate(-272.268 -266.348)" fill="url(#w)"/><path d="M273.165,262.377l4.879,2.137c.032,0,.064.032.1.032V262.7a1.074,1.074,0,0,1-.542.159.983.983,0,0,1-.415-.1L272.4,260.4h0v1.977A1.054,1.054,0,0,1,273.165,262.377Z" transform="translate(-272.336 -233.519)" fill="url(#x)"/><path d="M273.07,286l5.038,1.658h.032V286.35a1.019,1.019,0,0,1-.446.1,2.194,2.194,0,0,1-.415-.064L272.4,284.5v1.467A1.6,1.6,0,0,1,273.07,286Z" transform="translate(-272.336 -249.934)" fill="url(#y)"/><path d="M273.134,274.222l4.942,1.881c.032,0,.032.032.064.032v-1.562a.9.9,0,0,1-.478.128.98.98,0,0,1-.415-.1l-4.847-2.1v1.722A.972.972,0,0,1,273.134,274.222Z" transform="translate(-272.336 -241.76)" fill="url(#z)"/><path d="M272.751,333.206l5.357.7h.032v-.383a1.306,1.306,0,0,1-.574,0L272.4,332.6v.574A1.438,1.438,0,0,1,272.751,333.206Z" transform="translate(-272.336 -282.695)" fill="url(#aa)"/><path d="M272.555,345.051l5.421.478h.064v-.16c-.1,0-.159.032-.255.032h-.223l-5.262-.7v.382A.8.8,0,0,1,272.555,345.051Z" transform="translate(-272.268 -290.937)" fill="url(#ab)"/><path d="M278.04,238.879a.722.722,0,0,1-.606.351.851.851,0,0,1-.383-.1l-4.624-2.838c-.032-.032-.1-.064-.128-.1v2.551a.833.833,0,0,1,.861-.032l4.719,2.615a.7.7,0,0,1,.159.128v-2.583Z" transform="translate(-272.268 -217.035)" fill="url(#ac)"/><path d="M272.3,190.673a.583.583,0,0,1,.829-.159l4.56,3.093a.616.616,0,0,1,.16.861.666.666,0,0,1-.51.255.727.727,0,0,1-.351-.1l-4.56-3.093a.428.428,0,0,1-.191-.223v2.934a.676.676,0,0,1,.861-.1l4.624,2.838a.566.566,0,0,1,.223.255V181.648L272.2,176.1v14.637A.246.246,0,0,0,272.3,190.673Zm.383-11.033a.3.3,0,0,1,.415-.032l4.3,3.795a.3.3,0,0,1,.032.415.289.289,0,0,1-.223.1.454.454,0,0,1-.191-.064l-4.3-3.795A.3.3,0,0,1,272.678,179.64Zm-.127,3.667a.435.435,0,0,1,.574-.064l4.4,3.54a.435.435,0,0,1,.064.574.443.443,0,0,1-.319.159.363.363,0,0,1-.255-.1l-4.4-3.54A.4.4,0,0,1,272.551,183.307Zm-.128,3.7a.477.477,0,0,1,.7-.1l4.464,3.316a.477.477,0,0,1,.1.7.514.514,0,0,1-.415.191.444.444,0,0,1-.287-.1l-4.464-3.316A.5.5,0,0,1,272.423,187.006Z" transform="translate(-272.2 -176.1)" fill="url(#ad)"/><path d="M275.776,356.919,272.3,356.6v.16h.127Z" transform="translate(-272.268 -299.042)" fill="url(#ae)"/></g><g transform="translate(33.61 23.79)"><path d="M296.461,315.147l1.977.638L295.6,314.7v.414A1.58,1.58,0,0,1,296.461,315.147Z" transform="translate(-295.6 -283.641)" fill="url(#af)"/><path d="M295.6,325.2v.1c.064,0,.127-.032.191-.032Z" transform="translate(-295.6 -290.793)" fill="url(#ag)"/><path d="M296.593,305.065l3.922,1.5v-.542a1.125,1.125,0,0,1-.446.1,1.28,1.28,0,0,1-.478-.1L295.7,304.3v.765A1.087,1.087,0,0,1,296.593,305.065Z" transform="translate(-295.668 -276.557)" fill="url(#ah)"/><path d="M296.557,295.052l3.89,1.722v-.893a1.336,1.336,0,0,1-.478.128,1.281,1.281,0,0,1-.478-.1L295.632,294H295.6v1.084A1.018,1.018,0,0,1,296.557,295.052Z" transform="translate(-295.6 -269.542)" fill="url(#ai)"/><path d="M309.364,319.564H309.3l.478.159V319.5A.876.876,0,0,1,309.364,319.564Z" transform="translate(-304.931 -286.911)" fill="url(#aj)"/><path d="M299.559,285.368l-3.795-2.1a.069.069,0,0,1-.064-.064v1.467a1.016,1.016,0,0,1,.957,0l3.858,1.913h.032V285.3a.964.964,0,0,1-.51.159A.628.628,0,0,1,299.559,285.368Z" transform="translate(-295.668 -262.186)" fill="url(#ak)"/><path d="M296.625,264l3.731,2.3a.56.56,0,0,1,.16.128v-2.232c-.032.064-.032.1-.064.128a.612.612,0,0,1-.51.287.641.641,0,0,1-.351-.1l-3.667-2.487a.461.461,0,0,1-.223-.319v2.423A.729.729,0,0,1,296.625,264Z" transform="translate(-295.668 -247.542)" fill="url(#al)"/><path d="M296.589,274.518l3.795,2.1a.069.069,0,0,1,.064.064V275a.787.787,0,0,1-.542.255.7.7,0,0,1-.415-.128l-3.731-2.3a.556.556,0,0,1-.159-.127v1.881A.924.924,0,0,1,296.589,274.518Z" transform="translate(-295.6 -255.034)" fill="url(#am)"/><path d="M295.7,230.916a.616.616,0,0,1,.861-.159l3.667,2.487a.461.461,0,0,1,.223.319V222.625L295.6,217.3v13.776A.7.7,0,0,1,295.7,230.916Zm.478-9.279a.2.2,0,0,1,.255-.032l3.476,3.061a.2.2,0,0,1,.032.255.241.241,0,0,1-.127.064.192.192,0,0,1-.127-.032l-3.476-3.061A.15.15,0,0,1,296.174,221.637Zm-.16,3.093a.387.387,0,0,1,.478-.064l3.54,2.87a.387.387,0,0,1,.064.478.29.29,0,0,1-.255.128.342.342,0,0,1-.191-.064l-3.54-2.87A.311.311,0,0,1,296.014,224.73Zm-.159,3.093a.466.466,0,0,1,.67-.1l3.6,2.679a.466.466,0,0,1,.1.67.454.454,0,0,1-.383.191.514.514,0,0,1-.287-.1l-3.6-2.679A.469.469,0,0,1,295.855,227.823Z" transform="translate(-295.6 -217.3)" fill="url(#an)"/></g><g transform="translate(0 23.758)"><path d="M195.115,293.8l-3.858,1.913a1.28,1.28,0,0,1-.478.1.831.831,0,0,1-.478-.128v.893l3.922-1.722a1.245,1.245,0,0,1,.957,0l-.064-1.052Z" transform="translate(-190.268 -269.374)" fill="#fff"/><path d="M196.5,315.784l1.977-.638a1.58,1.58,0,0,1,.861-.032V314.7Z" transform="translate(-194.491 -283.609)" fill="#fff"/><path d="M204.9,325.264a.407.407,0,0,1,.191.032v-.1Z" transform="translate(-200.212 -290.761)" fill="#fff"/><path d="M190.2,319.5v.223l.478-.159h-.064A.942.942,0,0,1,190.2,319.5Z" transform="translate(-190.2 -286.879)" fill="#fff"/><path d="M194.158,284.667a1.116,1.116,0,0,1,.957,0V283.2l-.064.064-3.795,2.1a1.039,1.039,0,0,1-.446.128.883.883,0,0,1-.51-.159v1.276h.032Z" transform="translate(-190.268 -262.154)" fill="#fff"/><path d="M191.225,305.922a1.28,1.28,0,0,1-.478.1,1.019,1.019,0,0,1-.446-.1v.542l3.954-1.5a1.32,1.32,0,0,1,.925,0V304.2Z" transform="translate(-190.268 -276.458)" fill="#fff"/><path d="M190.455,233.176l3.667-2.487a.616.616,0,0,1,.861.159.242.242,0,0,1,.064.128V217.2l-4.847,5.325v10.97A.506.506,0,0,1,190.455,233.176Zm.319-8.546,3.476-3.061a.182.182,0,0,1,.223.287L191,224.917c-.032.032-.064.032-.128.032a.166.166,0,0,1-.128-.064A.169.169,0,0,1,190.774,224.63Zm-.128,2.838,3.54-2.87a.341.341,0,0,1,.415.542l-3.54,2.87a.234.234,0,0,1-.191.064.29.29,0,0,1-.255-.128A.346.346,0,0,1,190.646,227.468Zm-.1,2.87,3.6-2.679a.478.478,0,0,1,.574.765l-3.6,2.678a.513.513,0,0,1-.287.1.454.454,0,0,1-.383-.191A.466.466,0,0,1,190.551,230.338Z" transform="translate(-190.2 -217.2)" fill="#fff"/><path d="M194.892,261.951l-3.667,2.487a.643.643,0,0,1-.351.1.613.613,0,0,1-.51-.287.243.243,0,0,1-.064-.16v2.232a.689.689,0,0,1,.159-.127l3.731-2.3a.773.773,0,0,1,.957.127V261.6A.772.772,0,0,1,194.892,261.951Z" transform="translate(-190.268 -247.442)" fill="#fff"/><path d="M194.988,272.827l-3.731,2.3a.9.9,0,0,1-.415.128A.681.681,0,0,1,190.3,275v1.69c.032-.032.064-.032.064-.064l3.795-2.1a.931.931,0,0,1,.957.064V272.7C195.083,272.732,195.019,272.764,194.988,272.827Z" transform="translate(-190.268 -255.002)" fill="#fff"/></g></g><g transform="translate(0 50.735)"><path d="M210.8,304.67l-.319-.191-.893-.542-.574-.351-3-1.786,2.806,2.965a7.031,7.031,0,0,1,1.786,3.157,4.516,4.516,0,0,1,.128.638c0,.064.032.128.032.223.287,2.615-1.084,5.293-3.954,7.015l-17,10.2a10.764,10.764,0,0,1-11.065,0l-17-10.2c-2.87-1.722-4.273-4.4-3.954-7.015a.623.623,0,0,1,.032-.223,4.5,4.5,0,0,1,.128-.638,7.2,7.2,0,0,1,1.786-3.157l2.806-2.965-3,1.786-.606.351-.893.542-.319.191a8.9,8.9,0,0,0-4.241,6.186,9.01,9.01,0,0,0,4.241,6.154l18.208,10.937a16.145,16.145,0,0,0,16.677,0l18.208-10.937a8.911,8.911,0,0,0,4.241-6.154A9.012,9.012,0,0,0,210.8,304.67Z" transform="translate(-153.329 -301.8)" fill="#fff"/><path d="M210.437,340.973l-18.208,10.938a16.146,16.146,0,0,1-16.677,0l-18.208-10.938a9.026,9.026,0,0,1-4.337-8.673,9,9,0,0,0,4.337,6.856l18.208,10.938a16.147,16.147,0,0,0,16.677,0l18.208-10.937a8.914,8.914,0,0,0,4.337-6.856A8.968,8.968,0,0,1,210.437,340.973Z" transform="translate(-152.964 -322.574)" fill="url(#ao)"/></g></g></g></svg>