<svg xmlns="http://www.w3.org/2000/svg" xmlns:xlink="http://www.w3.org/1999/xlink" width="103.716" height="87.567" viewBox="0 0 103.716 87.567"><defs><linearGradient id="a" x1="0.5" x2="0.5" y2="1" gradientUnits="objectBoundingBox"><stop offset="0" stop-color="#76c34e"/><stop offset="1" stop-color="#467fce"/></linearGradient></defs><g transform="translate(0 -39.861)"><g transform="translate(0 39.861)"><path d="M103.716,102.34a25.081,25.081,0,0,0-45.5-14.567H26.576v-6.08a3.532,3.532,0,0,0-3.528-3.528H15.862a3.532,3.532,0,0,0-3.528,3.528v6.08H10.606a7.588,7.588,0,0,1-7.58-7.58V68.88a7.588,7.588,0,0,1,7.58-7.58h71.77a7.588,7.588,0,0,1,7.58,7.58v6.848a1.513,1.513,0,1,0,3.026,0V68.88A10.618,10.618,0,0,0,82.376,58.274H66.67V51.71A11.863,11.863,0,0,0,54.821,39.861H38.162A11.863,11.863,0,0,0,26.312,51.71v6.564H10.606A10.618,10.618,0,0,0,0,68.88v44.875a10.618,10.618,0,0,0,10.606,10.606H58.97a1.513,1.513,0,1,0,0-3.026H10.606a7.588,7.588,0,0,1-7.58-7.58V87.6a10.572,10.572,0,0,0,7.58,3.2h1.729v1.538a7.121,7.121,0,0,0,14.242,0V90.8h29.78a25.086,25.086,0,1,0,47.36,11.541ZM57.557,58.274H35.425V51.71a2.739,2.739,0,0,1,2.736-2.736H54.821a2.739,2.739,0,0,1,2.736,2.736ZM29.339,51.71a8.833,8.833,0,0,1,8.823-8.823H54.821a8.833,8.833,0,0,1,8.823,8.823v6.564h-3.06V51.71a5.769,5.769,0,0,0-5.763-5.763H38.162A5.769,5.769,0,0,0,32.4,51.71v6.564h-3.06ZM15.862,81.191h7.186a.5.5,0,0,1,.5.5v2.32H15.361v-2.32a.5.5,0,0,1,.5-.5ZM23.55,92.337a4.094,4.094,0,0,1-8.189,0v-5.3H23.55v5.3Zm74.837,19.808a48.448,48.448,0,0,0-7.087-1.335,47.7,47.7,0,0,0,0-16.94,48.45,48.45,0,0,0,7.087-1.335,22.027,22.027,0,0,1,0,19.611ZM87.564,91.2c-2.331.191-4.836.307-7.423.341V80.536C84.013,81.844,86.443,87.272,87.564,91.2ZM77.115,80.527V91.544c-2.586-.033-5.09-.15-7.42-.34C71.29,85.591,74.027,81.541,77.115,80.527ZM69.69,113.476c2.331-.191,4.838-.308,7.425-.341V124.15C74.029,123.14,71.286,119.112,69.69,113.476Zm10.451,10.667V113.135c2.587.033,5.092.15,7.423.341C86.443,117.406,84.014,122.835,80.141,124.143Zm0-14.034V94.571c2.856-.035,5.6-.167,8.132-.386a44.225,44.225,0,0,1,0,16.31c-2.535-.219-5.276-.352-8.132-.386Zm16.648-20.28a50.281,50.281,0,0,1-6.16,1.07,26.213,26.213,0,0,0-4.3-9.232A22.177,22.177,0,0,1,96.789,89.828ZM70.9,81.674a26.109,26.109,0,0,0-4.28,9.224,50.322,50.322,0,0,1-6.158-1.069A22.179,22.179,0,0,1,70.9,81.674ZM58.869,92.535a48.456,48.456,0,0,0,7.088,1.335,45.547,45.547,0,0,0-.664,5.445,1.513,1.513,0,1,0,3.021.189,41.609,41.609,0,0,1,.673-5.319c2.534.219,5.274.351,8.129.386v15.538c-2.855.035-5.595.167-8.129.386a41.221,41.221,0,0,1-.583-4.141,1.513,1.513,0,0,0-3.014.27c.128,1.43.323,2.83.578,4.185a48.437,48.437,0,0,0-7.1,1.337,22.025,22.025,0,0,1,0-19.61Zm1.6,22.316a50.339,50.339,0,0,1,6.175-1.071,26.489,26.489,0,0,0,4.281,9.233,22.177,22.177,0,0,1-10.455-8.161Zm25.864,8.162a26.213,26.213,0,0,0,4.3-9.232,50.321,50.321,0,0,1,6.16,1.07A22.177,22.177,0,0,1,86.331,123.013Z" transform="translate(0 -39.861)" fill="url(#a)"/></g></g></svg>