<svg xmlns="http://www.w3.org/2000/svg" xmlns:xlink="http://www.w3.org/1999/xlink" width="91.986" height="87.376" viewBox="0 0 91.986 87.376"><defs><linearGradient id="a" x1="0.5" x2="0.5" y2="1" gradientUnits="objectBoundingBox"><stop offset="0" stop-color="#76c34e"/><stop offset="1" stop-color="#467fce"/></linearGradient></defs><g transform="translate(-3 -3)"><path d="M41.6,44C24.541,44,14.562,47.026,14,48.648c.566,1.524,10.545,4.55,27.6,4.55,16.885,0,26.834-2.967,27.582-4.6C68.432,46.967,58.483,44,41.6,44Z" transform="translate(5.862 21.857)" fill="url(#a)"/><path d="M27,62.026c1.976.087,4.024.14,6.132.158V56.053c-2.044-.018-4.093-.077-6.132-.17Z" transform="translate(12.794 28.192)" fill="url(#a)"/><path d="M21,61.579c1.953.208,4,.382,6.132.518V55.954c-2.073-.135-4.122-.31-6.132-.52Z" transform="translate(9.596 27.952)" fill="url(#a)"/><path d="M3,54.412C3,56,5.145,57.819,9.132,59.5V53.606A24.263,24.263,0,0,1,3,50.351Z" transform="translate(0 25.243)" fill="url(#a)"/><path d="M9,59.144c1.8.595,3.853,1.156,6.132,1.671V54.744c-2.186-.469-4.241-1-6.132-1.582Z" transform="translate(3.199 26.741)" fill="url(#a)"/><path d="M15,60.692c1.91.362,3.96.687,6.132.972V55.527c-2.111-.27-4.162-.584-6.132-.94Z" transform="translate(6.397 27.501)" fill="url(#a)"/><path d="M33,62.185c2.108-.018,4.156-.071,6.132-.158V55.882c-2.039.094-4.089.152-6.132.17Z" transform="translate(15.993 28.191)" fill="url(#a)"/><path d="M45,61.664c2.172-.285,4.222-.61,6.132-.972v-6.1c-1.97.357-4.021.67-6.132.94Z" transform="translate(22.39 27.501)" fill="url(#a)"/><path d="M57,59.5c3.988-1.679,6.132-3.494,6.132-5.085V50.35A24.263,24.263,0,0,1,57,53.6Z" transform="translate(28.787 25.242)" fill="url(#a)"/><path d="M51,60.815c2.28-.515,4.333-1.078,6.132-1.671V53.163c-1.892.584-3.946,1.113-6.132,1.582Z" transform="translate(25.589 26.742)" fill="url(#a)"/><path d="M39,62.1c2.131-.136,4.179-.31,6.132-.518V55.434c-2.01.212-4.06.386-6.132.52Z" transform="translate(19.191 27.952)" fill="url(#a)"/><path d="M47.46,40C19.913,40,3,46.25,3,50.732S19.913,61.463,47.46,61.463s44.46-6.25,44.46-10.732S75.006,40,47.46,40Zm0,18.4C36.07,58.4,16.8,56.783,16.8,50.732S36.07,43.066,47.46,43.066s30.662,1.614,30.662,7.665S58.849,58.4,47.46,58.4Z" transform="translate(0 19.724)" fill="url(#a)"/><path d="M21.533,34.6H34.994l2.985,11.94a.448.448,0,0,0,.836,0L41.8,34.6H55.261a1.534,1.534,0,0,0,1.533-1.533V8.533A1.534,1.534,0,0,0,55.261,7H21.533A1.534,1.534,0,0,0,20,8.533v24.53A1.534,1.534,0,0,0,21.533,34.6ZM32.265,23.864h3.066V25.4h4.6a1.533,1.533,0,0,0,0-3.066H36.864a4.6,4.6,0,0,1,0-9.2V10.066H39.93v3.066h4.6v4.6H41.463V16.2h-4.6a1.533,1.533,0,0,0,0,3.066H39.93a4.6,4.6,0,0,1,0,9.2V31.53H36.864V28.463h-4.6Z" transform="translate(9.063 2.132)" fill="url(#a)"/><path d="M71.777,18a6.113,6.113,0,0,0-4.155,10.615L61.743,39.534a4.538,4.538,0,0,0-.7-.071,4.6,4.6,0,0,0-3.773,1.981l-8.527-2.326a4.588,4.588,0,1,0-8.429,2.818l-5.283,6.792q1.888.053,3.77.147l3.94-5.067a4.479,4.479,0,0,0,1.438.254,4.593,4.593,0,0,0,3.773-1.981l8.527,2.326a4.587,4.587,0,1,0,7.961-3.419L70.32,30.07a6.011,6.011,0,0,0,1.456.195,6.132,6.132,0,0,0,0-12.265Z" transform="translate(17.077 7.996)" fill="url(#a)"/><path d="M12.2,30.2H22.93V24.066H12.2V21L3,27.132l9.2,6.132Z" transform="translate(0 9.596)" fill="url(#a)"/><path d="M58.732,15.265l9.2-6.132L58.732,3V6.066H48V12.2H58.732Z" transform="translate(23.989)" fill="url(#a)"/></g></svg>