<svg xmlns="http://www.w3.org/2000/svg" xmlns:xlink="http://www.w3.org/1999/xlink" width="97.988" height="97.991" viewBox="0 0 97.988 97.991"><defs><linearGradient id="a" x1="0.5" x2="0.5" y2="1" gradientUnits="objectBoundingBox"><stop offset="0" stop-color="#76c34e"/><stop offset="1" stop-color="#467fce"/></linearGradient></defs><g transform="translate(-0.007)"><g transform="translate(0.007)"><path d="M97.717,333.247c-.855-2.688-3.835-5.065-8.356-3.931l-.032.008-18.9,5.094a6.038,6.038,0,0,0-6.622-4.621c-1.093.136-4.789.661-8.7,1.217-3.729.53-7.584,1.078-8.644,1.209a48.1,48.1,0,0,1-8.735-.215c-1.162-.092-2.364-.187-3.594-.264a1.914,1.914,0,0,0-.241,3.82c1.2.076,2.386.169,3.533.26a50.389,50.389,0,0,0,9.509.2c1.093-.136,4.793-.662,8.711-1.218,3.725-.529,7.577-1.077,8.637-1.208a2.2,2.2,0,0,1,2.458,1.9c.047.379.173,1.384-2.474,2.6a103.9,103.9,0,0,1-15.916,5.861,1.914,1.914,0,0,0,.974,3.7,107.868,107.868,0,0,0,16.538-6.083,8.852,8.852,0,0,0,3.85-3l20.6-5.552c2.27-.565,3.432.343,3.762,1.381a2.361,2.361,0,0,1-1.689,2.917c-1.6.6-5.442,2.273-10.3,4.386-6.437,2.8-14.447,6.285-20.836,8.847-7.86,3.152-10.1,3.576-18.411,3.483l-13.1-.145a1.912,1.912,0,0,0-1.723,1.039l-1.8,3.5a1.924,1.924,0,0,0-.146.379c-.266.991-.6,1.406-1.985,1.406H4.82a.844.844,0,0,1-.618-.355,1.9,1.9,0,0,1-.314-1.623c2.3-11,6.847-17.818,13.886-20.836a1.914,1.914,0,1,0-1.509-3.518C8,337.432,2.721,345.141.141,357.454a5.731,5.731,0,0,0,1.089,4.821,4.64,4.64,0,0,0,3.589,1.77H24.081a5.359,5.359,0,0,0,5.622-4.033l1.171-2.278,11.919.132c8.792.1,11.578-.429,19.878-3.757,6.44-2.582,14.479-6.08,20.938-8.89,4.626-2.012,8.622-3.751,10.128-4.317l.018-.007a6.154,6.154,0,0,0,3.962-7.649Z" transform="translate(-0.007 -266.054)" fill="url(#a)"/><path d="M124.6,343.2a1.914,1.914,0,1,0,1.915,1.914A1.913,1.913,0,0,0,124.6,343.2Z" transform="translate(-99.206 -277.513)" fill="url(#a)"/><path d="M126.631,61.244a1.914,1.914,0,0,0,1.914-1.914V51.675a1.914,1.914,0,0,0-1.914-1.914,19.139,19.139,0,1,1,19.044-21.053h-2.449a1.914,1.914,0,0,0-1.573,3l8.285,11.95a1.914,1.914,0,0,0,3.146,0l8.285-11.95a1.914,1.914,0,0,0-1.573-3h-2.6a30.623,30.623,0,1,0-30.563,32.536Zm0-57.416a26.825,26.825,0,0,1,26.794,26.794,1.914,1.914,0,0,0,1.914,1.914h.8l-4.629,6.677-4.629-6.677h.8a1.914,1.914,0,0,0,1.914-1.914,22.967,22.967,0,1,0-24.88,22.888v3.839a26.795,26.795,0,0,1,1.914-53.521Z" transform="translate(-77.635 0)" fill="url(#a)"/><path d="M237.79,106.537a1.914,1.914,0,0,0,2.706-2.707,5.074,5.074,0,0,0-2.162-1.284v-.632a1.914,1.914,0,0,0-3.828,0v1.011a5.1,5.1,0,0,0-1.228,8.123l3.577,3.577a1.276,1.276,0,1,1-1.8,1.8,1.914,1.914,0,0,0-2.707,2.707,5.078,5.078,0,0,0,2.162,1.287v.63a1.914,1.914,0,1,0,3.828,0v-1.009a5.109,5.109,0,0,0,1.228-8.125l-3.577-3.577a1.276,1.276,0,1,1,1.8-1.8Z" transform="translate(-187.424 -80.861)" fill="url(#a)"/></g></g></svg>