<?xml version="1.0" encoding="utf-8"?>
<!-- Generator: Adobe Illustrator 22.0.0, SVG Export Plug-In . SVG Version: 6.00 Build 0)  -->
<svg version="1.1" id="Layer_1" xmlns="http://www.w3.org/2000/svg" xmlns:xlink="http://www.w3.org/1999/xlink" x="0px" y="0px"
	 viewBox="0 0 129.5 83.5" style="enable-background:new 0 0 129.5 83.5;" xml:space="preserve">
<style type="text/css">
	.st0{fill:#F1F3F4;}
	.st1{fill:url(#Path_1458_1_);}
	.st2{fill:#FFFFFF;}
	.st3{font-family:'SanFranciscoDisplay-Regular';}
	.st4{font-size:20px;}
</style>
<g>
	<circle class="st0" cx="64.8" cy="24.4" r="23"/>
	<g id="comment" transform="translate(293 1016)">
		
			<linearGradient id="Path_1458_1_" gradientUnits="userSpaceOnUse" x1="-1428.8055" y1="-610.4186" x2="-1428.8055" y2="-611.4186" gradientTransform="matrix(21.3307 0 0 -18.0908 30249.2012 -12041.5752)">
			<stop  offset="0" style="stop-color:#76C34E"/>
			<stop  offset="1" style="stop-color:#467FCE"/>
		</linearGradient>
		<path id="Path_1458" class="st1" d="M-219.7-998.2l-12.9,14.3l-4.1-4.6c-0.4-0.5-1.2-0.5-1.6-0.1c0,0-0.1,0.1-0.1,0.1
			c-0.5,0.6-0.5,1.4,0,2l5,5.6c0.4,0.5,1.2,0.5,1.6,0.1c0,0,0.1-0.1,0.1-0.1l13.8-15.3c0.5-0.6,0.5-1.4,0-2
			c-0.4-0.5-1.2-0.5-1.6-0.1C-219.6-998.3-219.7-998.3-219.7-998.2L-219.7-998.2z"/>
	</g>
	<text transform="matrix(1 0 0 1 2.1328 77.3755)" class="st2 st3 st4">Đã hoàn thành</text>
</g>
</svg>
