<svg xmlns="http://www.w3.org/2000/svg" width="53.979" height="53.718" viewBox="0 0 53.979 53.718"><g transform="translate(-1 -1)"><path d="M60.155,52.418H58.414V47.2H56.673v5.217H54.932V48.945H53.19v3.477H51.449V45.463H49.708v6.962l-1.741,0V47.2H46.225v5.223H44.36l-1.628-10.58-1.72.265L42.866,54.17l17.289-.01Z" transform="translate(-5.177 -5.285)" fill="#00807e"/><path d="M18.289,7.964l-3.359,0V2.741H13.189V7.968H11.448V4.483H9.706V7.969H7.965V1H6.224V7.971H4.483V2.741H2.741V7.974H1V9.716l15.795-.01,1.628,10.58,1.72-.265Z" fill="#00807e"/><path d="M30.612,35.224a2.612,2.612,0,1,1,2.612-2.612A2.615,2.615,0,0,1,30.612,35.224Zm0-3.483a.871.871,0,1,0,.871.871A.872.872,0,0,0,30.612,31.741Z" transform="translate(-3.493 -3.752)" fill="#00807e"/><path d="M0,0H11.081V1.741H0Z" transform="translate(3.861 50.876) rotate(-45)" fill="#00807e"/><path d="M0,0H2.462V1.741H0Z" transform="translate(1.249 53.487) rotate(-45)" fill="#00807e"/><path d="M0,0H7.387V1.741H0Z" transform="translate(9.084 50.877) rotate(-45)" fill="#00807e"/><path d="M0,0H2.462V1.741H0Z" transform="translate(6.472 53.487) rotate(-45)" fill="#00807e"/><path d="M0,0H7.387V1.741H0Z" transform="translate(3.862 45.653) rotate(-45)" fill="#00807e"/><path d="M0,0H2.462V1.741H0Z" transform="translate(1.25 48.263) rotate(-45)" fill="#00807e"/><path d="M36.954,7A13.074,13.074,0,0,0,23.9,20.059c0,.079.007.158.01.236a22.422,22.422,0,0,0-3.4,2.793,22.192,22.192,0,0,0-4.164,5.777l-.386.771H14.372A12.992,12.992,0,0,0,3.115,36.169L3,36.37v2.31l4.507-1.5a11.246,11.246,0,0,1,3.55-.575h1.417l-1.827,3.654,6.112,6.112,3.655-1.827v1.417a11.2,11.2,0,0,1-.576,3.55l-1.5,4.508h2.31l.2-.115a12.992,12.992,0,0,0,6.533-11.257V41.058l.772-.386a22.189,22.189,0,0,0,5.777-4.163,22.429,22.429,0,0,0,2.793-3.4c.078,0,.156.01.235.01A13.059,13.059,0,0,0,36.954,7Zm-25.9,27.86a12.928,12.928,0,0,0-4.1.666l-1.737.579a11.254,11.254,0,0,1,9.152-4.727h.714L13.345,34.86ZM17.1,44.248l-4.336-4.336,2.372-4.743,6.708,6.707Zm8.535-1.606a11.256,11.256,0,0,1-4.727,9.153l.579-1.737a12.946,12.946,0,0,0,.665-4.1V43.669l3.483-1.741ZM32.7,35.277a20.448,20.448,0,0,1-5.325,3.837l-3.884,1.942-7.529-7.528L17.9,29.643A20.494,20.494,0,0,1,31.756,18.811,6.965,6.965,0,0,0,38.2,25.259,20.352,20.352,0,0,1,32.7,35.277Zm3.529-16.959A2.474,2.474,0,0,1,38.7,20.79a20.758,20.758,0,0,1-.186,2.742A5.223,5.223,0,0,1,33.481,18.5,20.781,20.781,0,0,1,36.224,18.318Zm0-1.741a22.413,22.413,0,0,0-4.535.464,6.076,6.076,0,1,1,8.284,8.284,22.42,22.42,0,0,0,.464-4.535A4.218,4.218,0,0,0,36.224,16.577Zm1.562,14.759a21.894,21.894,0,0,0,1.625-3.847A7.829,7.829,0,1,0,29.525,17.6a21.96,21.96,0,0,0-3.847,1.625A11.312,11.312,0,1,1,37.786,31.336Z" transform="translate(-0.259 -0.776)" fill="#00807e"/></g></svg>