<svg xmlns="http://www.w3.org/2000/svg" width="26.88" height="21.84" viewBox="0 0 26.88 21.84"><path d="M26.88,50.586a11.489,11.489,0,0,1-3.175.87,5.48,5.48,0,0,0,2.424-3.046,11.013,11.013,0,0,1-3.494,1.334A5.51,5.51,0,0,0,13.1,53.512a5.674,5.674,0,0,0,.128,1.257A15.6,15.6,0,0,1,1.871,49,5.512,5.512,0,0,0,3.565,56.37a5.442,5.442,0,0,1-2.49-.679v.06A5.536,5.536,0,0,0,5.49,61.166a5.5,5.5,0,0,1-1.445.181A4.873,4.873,0,0,1,3,61.253a5.563,5.563,0,0,0,5.149,3.839,11.073,11.073,0,0,1-6.833,2.35A10.322,10.322,0,0,1,0,67.367,15.514,15.514,0,0,0,8.454,69.84,15.576,15.576,0,0,0,24.138,54.159c0-.244-.008-.479-.02-.712A10.993,10.993,0,0,0,26.88,50.586Z" transform="translate(0 -48)" fill="#fff"/></svg>